<?xml version="1.0" encoding="utf-8"?>
<!-- Generator: Adobe Illustrator 24.0.1, SVG Export Plug-In . SVG Version: 6.00 Build 0)  -->
<svg version="1.1" id="Layer_1" xmlns="http://www.w3.org/2000/svg" xmlns:xlink="http://www.w3.org/1999/xlink" x="0px" y="0px"
	 viewBox="0 0 124 47" style="enable-background:new 0 0 124 47;" xml:space="preserve">
<style type="text/css">
	.st0{fill:#E29925;}
	.st1{fill:#24A54A;}
	.st2{fill:#E9EBAC;}
	.st3{fill:#231F20;}
	.st4{fill:#02A550;}
	.st5{fill:#FFFFFF;}
	.st6{clip-path:url(#SVGID_1_);}
</style>
<g>
	<path class="st0" d="M89.7,25.8c-0.1,0-0.1,0-0.1-0.1l-1.4-2.1l0.3-0.2l1.2,1.8l0.7-3.4c0.2-0.9,0.6-1.6,1.1-1.9
		c0.2-0.1,0.5-0.2,0.7-0.1c0.6,0.2,0.8,1.2,0.6,2.3c-0.1,0.6-0.4,1.1-0.7,1.2c-0.2,0.1-0.3,0.1-0.5,0.1C91,23.3,90.8,22.7,91,22
		c0.1-0.4,0.3-0.7,0.5-0.8c0.1-0.1,0.2-0.1,0.4,0c0.3,0.1,0.4,0.5,0.3,1L91.9,22c0.1-0.4,0-0.6-0.1-0.6c0,0,0,0-0.1,0
		c-0.1,0.1-0.3,0.3-0.4,0.6c-0.1,0.6,0,1.1,0.2,1.1c0.1,0,0.1,0,0.2,0c0.3-0.1,0.5-0.6,0.6-1c0.2-1,0-1.8-0.4-1.9
		c-0.1,0-0.3,0-0.4,0.1c-0.4,0.2-0.8,0.9-1,1.7l-0.7,3.7C89.8,25.8,89.8,25.8,89.7,25.8C89.7,25.8,89.7,25.8,89.7,25.8"/>
	<path class="st0" d="M83.5,23.7l-0.2-0.1l0.1-0.3l1-2.5c0,0,0.4-1,1.7-1l5.8,0l0,0.2l-5.8,0c-1.2,0-1.5,0.8-1.5,0.9L83.5,23.7z"/>
	<path class="st0" d="M89.6,25.8c-0.3,0-1.5,0-2.1-0.6l0.2-0.2c0.6,0.6,2,0.6,2,0.6L89.6,25.8C89.7,25.8,89.7,25.8,89.6,25.8"/>
	<path class="st1" d="M71.9,32.5l-0.2-0.1c2.3-3.3,3.6-7.5,3.7-11.9c0.1-4.6-1.1-9.1-3.4-12.6l0.2-0.1c2.3,3.5,3.5,8,3.4,12.7
		C75.5,24.9,74.2,29.2,71.9,32.5"/>
	<path class="st1" d="M49.7,32.5c-2.4-3.5-3.6-8.1-3.5-12.8c0.1-4.5,1.5-8.8,3.8-12.1l0.2,0.1c-2.3,3.3-3.7,7.6-3.8,12
		c-0.1,4.7,1.1,9.2,3.5,12.7L49.7,32.5z"/>
	<path class="st1" d="M53,30.4c-1.9-2.9-3-6.7-2.9-10.6c0.1-3.8,1.2-7.4,3.1-10.1l0.2,0.1c-1.9,2.7-3,6.2-3.1,10
		c-0.1,3.9,0.9,7.7,2.8,10.5L53,30.4z"/>
	<path class="st1" d="M68.6,30.4l-0.2-0.1c1.9-2.7,3-6.2,3-10c0.1-3.9-0.9-7.6-2.7-10.4l0.2-0.1c1.9,2.9,2.9,6.6,2.8,10.5
		C71.6,24.1,70.5,27.7,68.6,30.4"/>
	<path class="st1" d="M56.2,29.2c-1.8-2.2-2.9-5.7-2.8-9.4c0.1-3.5,1.2-6.8,3-9l0.2,0.1c-1.8,2.1-2.9,5.3-3,8.8
		c-0.1,3.6,0.9,7,2.8,9.2L56.2,29.2z"/>
	<path class="st1" d="M65.4,29.2l-0.2-0.1c1.8-2.1,2.9-5.3,3-8.8c0.1-3.6-0.9-6.9-2.7-9.1l0.2-0.1c1.8,2.3,2.8,5.6,2.7,9.3
		C68.3,23.8,67.2,27.1,65.4,29.2"/>
	<path class="st1" d="M59.4,28.7c-1.6-1.3-2.6-4.8-2.5-8.8c0.1-3.8,1.2-7.1,2.8-8.5l0.1,0.2c-1.5,1.3-2.6,4.6-2.7,8.3
		c-0.1,3.9,0.9,7.3,2.4,8.6L59.4,28.7z"/>
	<path class="st1" d="M62.2,28.7l-0.1-0.2c1.6-1.3,2.7-4.6,2.8-8.4c0.1-3.8-0.9-7.2-2.4-8.5l0.1-0.2c1.5,1.4,2.5,4.9,2.4,8.7
		C65,24,63.8,27.4,62.2,28.7"/>
	<polygon class="st1" points="61,28.6 60.7,28.6 61.2,11.6 61.4,11.6 	"/>
	<path class="st1" d="M61.2,11.7c-0.1,0-0.3,0-0.4,0c-0.4,0-0.7,0-1.1-0.1c-1.1-0.1-2.2-0.3-3.2-0.6c-1.1-0.3-2.2-0.7-3.2-1.3
		c-1.2-0.6-2.3-1.3-3.3-2.2c-0.4-0.3-0.8-0.7-1.2-1l0.2-0.2c0.4,0.4,0.8,0.7,1.1,1c1,0.8,2.1,1.5,3.3,2.1c1,0.5,2.1,0.9,3.2,1.2
		c1,0.3,2.1,0.5,3.2,0.6c0.3,0,0.7,0.1,1.1,0.1c0.2,0,0.3,0,0.5,0c0.4,0,0.9,0,1.3-0.1c1-0.1,2.1-0.3,3.1-0.5
		c1.1-0.3,2.2-0.7,3.2-1.2c1.2-0.6,2.3-1.3,3.3-2.1c0.4-0.3,0.7-0.6,1.1-0.9l0.1,0.2c-0.4,0.3-0.7,0.7-1.1,0.9
		c-1,0.8-2.1,1.5-3.3,2.1c-1,0.5-2.1,0.9-3.3,1.2c-1,0.3-2.1,0.4-3.1,0.5C62.1,11.7,61.7,11.7,61.2,11.7"/>
	<path class="st1" d="M61.2,15.7c-0.2,0-0.4,0-0.6,0c-0.7,0-1.3-0.1-1.9-0.1c-1.9-0.2-3.8-0.6-5.7-1.3c-2-0.7-3.9-1.7-5.7-2.9
		c-0.5-0.3-1-0.7-1.5-1l0.1-0.2c0.5,0.3,1,0.7,1.5,1c1.8,1.2,3.7,2.2,5.7,2.9c1.9,0.7,3.8,1.1,5.7,1.3c0.6,0.1,1.3,0.1,1.9,0.1
		c0.3,0,0.6,0,0.9,0c0.8,0,1.5-0.1,2.3-0.1c1.8-0.2,3.7-0.6,5.5-1.2c2-0.7,3.9-1.6,5.7-2.8c0.4-0.3,0.8-0.5,1.2-0.8l0.1,0.2
		c-0.4,0.3-0.8,0.6-1.2,0.8c-1.8,1.2-3.8,2.1-5.8,2.8c-1.8,0.6-3.7,1.1-5.5,1.3c-0.8,0.1-1.6,0.1-2.3,0.1
		C61.3,15.7,61.3,15.7,61.2,15.7"/>
	<path class="st1" d="M61.3,20c-0.2,0-0.5,0-0.7,0c-0.8,0-1.5-0.1-2.2-0.1c-2.1-0.2-4.3-0.7-6.4-1.3c-2.2-0.7-4.4-1.7-6.4-2.9
		c-0.7-0.4-1.3-0.8-1.9-1.2l0.1-0.2c0.6,0.4,1.2,0.8,1.9,1.2c2,1.2,4.2,2.2,6.4,2.9c2.1,0.7,4.2,1.1,6.3,1.3
		c0.7,0.1,1.4,0.1,2.2,0.1c0.3,0,0.6,0,1,0c0.8,0,1.7,0,2.6-0.1c2.1-0.2,4.1-0.6,6.1-1.2c2.2-0.7,4.4-1.6,6.4-2.8
		c0.5-0.3,1-0.6,1.4-0.9l0.1,0.2c-0.5,0.3-1,0.6-1.5,0.9c-2.1,1.2-4.2,2.1-6.5,2.8c-2,0.6-4.1,1-6.2,1.2c-0.9,0.1-1.8,0.1-2.6,0.1
		C61.5,20,61.4,20,61.3,20"/>
	<path class="st1" d="M75.7,30.5c-0.4-0.3-0.8-0.6-1.2-0.9c-1.8-1.3-3.6-2.3-5.6-3.1c-1.8-0.7-3.6-1.2-5.4-1.5
		c-0.8-0.1-1.6-0.2-2.3-0.3c-0.3,0-0.6,0-0.9,0c-0.7,0-1.3,0-1.9,0c-1.9,0.1-3.8,0.4-5.7,1c-2,0.6-3.9,1.5-5.8,2.6
		c-0.5,0.3-1,0.6-1.5,1l-0.1-0.2c0.5-0.3,1-0.7,1.5-1c1.9-1.1,3.8-2,5.8-2.6c1.9-0.6,3.8-0.9,5.8-1c0.6,0,1.3-0.1,1.9,0
		c0.3,0,0.6,0,0.9,0c0.8,0,1.5,0.1,2.3,0.3c1.8,0.3,3.7,0.8,5.5,1.5c2,0.8,3.8,1.9,5.6,3.1c0.4,0.3,0.8,0.6,1.2,0.9L75.7,30.5z"/>
	<path class="st1" d="M77.8,26.4c-0.5-0.3-0.9-0.6-1.4-0.9c-2-1.3-4.1-2.3-6.3-3.1c-2-0.7-4-1.2-6.1-1.5c-0.9-0.1-1.7-0.2-2.6-0.3
		c-0.3,0-0.6,0-1,0c-0.7,0-1.5,0-2.2,0c-2.1,0.1-4.3,0.4-6.4,1c-2.2,0.6-4.4,1.5-6.5,2.6c-0.7,0.3-1.3,0.7-1.9,1.1L43.5,25
		c0.6-0.4,1.3-0.8,1.9-1.1c2.1-1.1,4.3-2,6.5-2.6c2.1-0.6,4.3-0.9,6.4-1c0.7,0,1.4,0,2.2,0c0.4,0,0.7,0,1,0c0.9,0,1.7,0.1,2.6,0.3
		c2.1,0.3,4.1,0.8,6.1,1.6c2.2,0.8,4.3,1.9,6.3,3.2c0.5,0.3,0.9,0.6,1.4,1L77.8,26.4z"/>
	<path class="st1" d="M72.9,33.5c-0.4-0.4-0.8-0.7-1.2-1c-1-0.8-2.1-1.5-3.3-2.1c-1-0.5-2.1-0.9-3.2-1.2c-1-0.3-2.1-0.4-3.1-0.5
		c-0.3,0-0.5,0-0.9,0c-0.1,0-0.3,0-0.4,0c-0.5,0-0.9,0-1.4,0.1c-1.1,0.1-2.1,0.3-3.1,0.5c-1.1,0.3-2.2,0.7-3.2,1.2
		c-1.2,0.6-2.3,1.3-3.3,2.1c-0.4,0.3-0.7,0.6-1.1,0.9l-0.1-0.2c0.3-0.3,0.7-0.6,1.1-0.9c1-0.8,2.1-1.5,3.3-2.1
		c1-0.5,2.1-0.9,3.2-1.2c1-0.3,2.1-0.5,3.2-0.5c0.5,0,0.9-0.1,1.4-0.1c0.1,0,0.3,0,0.4,0c0.3,0,0.6,0,0.9,0c1.1,0.1,2.1,0.3,3.2,0.5
		c1.1,0.3,2.2,0.7,3.2,1.2c1.2,0.6,2.3,1.3,3.3,2.1c0.4,0.3,0.8,0.7,1.2,1.1L72.9,33.5z"/>
	<path class="st0" d="M32.5,26.2C32.5,26.2,32.5,26.2,32.5,26.2c-0.1,0-0.1-0.1-0.2-0.1l-0.7-3.7c-0.2-0.8-0.6-1.4-1-1.7
		c-0.2-0.1-0.3-0.1-0.4-0.1c-0.3,0.1-0.6,0.9-0.4,1.9c0.1,0.5,0.3,0.9,0.6,1c0.1,0,0.2,0.1,0.2,0c0.2-0.1,0.3-0.6,0.2-1.1
		c-0.1-0.3-0.2-0.6-0.4-0.6c-0.1,0-0.1,0-0.1,0c-0.1,0-0.2,0.3-0.1,0.6L30,22.4c-0.1-0.5,0-0.9,0.3-1c0.1,0,0.2,0,0.4,0
		c0.2,0.1,0.4,0.4,0.5,0.8c0.2,0.7,0,1.4-0.4,1.5c-0.2,0-0.3,0-0.5-0.1c-0.3-0.2-0.6-0.7-0.8-1.2c-0.2-1.1,0-2.1,0.6-2.3
		c0.2-0.1,0.5,0,0.7,0.1c0.5,0.3,0.9,1,1.1,1.9l0.7,3.4l1.2-1.8l0.3,0.2l-1.4,2.1C32.6,26.1,32.6,26.2,32.5,26.2"/>
	<path class="st0" d="M38.7,24l-0.1-0.3l-1-2.4c0,0-0.3-0.9-1.5-0.8l-5.8,0v-0.3l5.8,0c1.4-0.1,1.8,1,1.8,1l1.1,2.7L38.7,24z"/>
	<path class="st0" d="M32.6,26.2C32.5,26.2,32.5,26.2,32.6,26.2l0-0.3c0,0,1.4,0,2-0.6l0.2,0.2C34.1,26.2,32.8,26.2,32.6,26.2"/>
	<path class="st2" d="M33.8,23.8c1.1,6.5,4.4,12.2,9.2,16.4c2.3,2,4.9,3.6,7.8,4.7c3.2,1.3,6.7,2,10.3,2c3.6,0,7.1-0.7,10.3-2
		c0,0,0,0,0,0c3.2-1.3,6.2-3.2,8.6-5.6c4.3-4.1,7.3-9.6,8.3-15.8l-6.6,0c-0.8,4.6-3,8.7-6.3,11.7c-1.9,1.8-4.1,3.2-6.6,4.2
		c0,0,0,0,0,0c-2.4,1-5.1,1.5-7.8,1.5c-2.8,0-5.4-0.5-7.8-1.5c-2.2-0.9-4.2-2.1-5.9-3.6c-3.6-3.1-6.1-7.2-7-12.1L33.8,23.8z"/>
	<path class="st0" d="M61.1,47c-3.6,0-7.1-0.7-10.4-2c-2.9-1.1-5.5-2.8-7.8-4.8C38,36,34.7,30.2,33.7,23.8c0,0,0-0.1,0-0.1
		c0,0,0.1-0.1,0.1-0.1l6.6,0c0.1,0,0.1,0.1,0.2,0.1c0.8,4.7,3.2,8.8,6.9,12c1.7,1.5,3.7,2.7,5.9,3.6c2.5,1,5.1,1.5,7.8,1.5h0
		c2.7,0,5.3-0.5,7.8-1.5c0,0,0,0,0,0c2.4-1,4.6-2.4,6.5-4.2c3.3-3.1,5.5-7.2,6.2-11.6c0-0.1,0.1-0.1,0.2-0.1l6.6,0
		c0,0,0.1,0,0.1,0.1c0,0,0,0.1,0,0.1c-0.9,6-3.9,11.7-8.4,15.9c-2.5,2.4-5.5,4.3-8.7,5.6c0,0,0,0,0,0v0C68.2,46.3,64.7,47,61.1,47
		L61.1,47z M34,23.9c1.1,6.2,4.3,11.9,9.1,16.1c2.3,2,4.9,3.6,7.7,4.7c3.3,1.3,6.7,2,10.2,2h0c3.5,0,7-0.7,10.2-2c0,0,0,0,0,0
		c3.2-1.3,6.1-3.2,8.6-5.5c4.3-4.1,7.3-9.6,8.2-15.5l-6.2,0c-0.8,4.4-3,8.6-6.3,11.7c-1.9,1.8-4.2,3.3-6.6,4.2c0,0,0,0,0,0
		c-2.5,1-5.2,1.5-7.9,1.5h0c-2.7,0-5.4-0.5-7.9-1.5C51,38.7,49,37.5,47.3,36c-3.7-3.2-6.1-7.4-7-12L34,23.9z"/>
	<path class="st3" d="M38.5,26.8C38.5,26.8,38.5,26.8,38.5,26.8C38.5,26.8,38.5,26.8,38.5,26.8C38.5,26.8,38.5,26.8,38.5,26.8
		l0.1-0.3c0,0,0,0,0,0c0,0,0,0,0,0l-0.3-0.1c0,0,0,0,0,0c0,0,0,0,0,0l0,0.3c0,0,0,0,0,0L38.5,26.8z"/>
	<path class="st3" d="M38,26.9L38,27.1c0,0,0,0,0,0c0,0,0,0,0,0l0.3,0.1c0,0,0,0,0,0c0,0,0,0,0,0l0.1-0.3c0,0,0,0,0,0L38,26.9
		l0.1-0.3c0,0,0,0,0,0l-0.2-0.1c0,0,0,0,0,0l-0.1,0.3c0,0,0,0,0,0L38,26.9z"/>
	<path class="st3" d="M37.3,28.7l0-0.3c0,0,0,0,0,0l-0.3,0c0,0,0,0,0,0c0,0,0,0,0,0l0,0.3c0,0,0,0,0,0L37.3,28.7L37.2,29
		c0,0,0,0,0,0l0.3,0h0c0,0,0,0,0,0c0,0,0,0,0,0l0-0.3c0,0,0,0,0,0L37.3,28.7z"/>
	<path class="st3" d="M37.9,28.7c0.1,0,0.2,0,0.3-0.1c0.1-0.1,0.2-0.1,0.3-0.3c0,0,0,0,0,0l0,0c0,0,0,0,0,0l-0.2,0c0,0-0.1,0-0.1,0
		c0,0-0.1,0-0.1,0.1l-0.1,0.1c0,0,0,0,0,0c0,0-0.1,0-0.1-0.1c0,0-0.1-0.1-0.1-0.1c0-0.1-0.1-0.1-0.1-0.2c0,0,0,0,0,0l0,0
		c0,0,0,0,0-0.1c0-0.1,0-0.1,0-0.1c0,0,0-0.1,0-0.1c0,0,0-0.1,0.1-0.1c0,0,0.1-0.1,0.1-0.1c0,0,0,0,0,0l0,0c0,0,0,0,0,0
		c-0.2,0-0.3-0.1-0.3-0.2c0-0.1,0-0.2,0.1-0.2c0,0,0,0,0,0l0,0c0,0,0,0,0,0c-0.2-0.1-0.3-0.1-0.3-0.1c-0.1,0-0.1-0.1-0.2-0.2
		c0,0,0-0.1,0.1-0.2c0,0,0,0,0,0c0,0,0,0,0,0l-0.3,0c0,0,0,0,0,0c-0.1,0.1-0.2,0.2-0.3,0.2c-0.1,0-0.2,0.1-0.3,0
		c-0.1,0-0.2-0.1-0.3-0.2c-0.1-0.1-0.2-0.2-0.2-0.4c0-0.1-0.1-0.2-0.1-0.3c0-0.1,0-0.2,0-0.2c0-0.1,0-0.1,0.1-0.2
		c0,0,0.1-0.1,0.1-0.1c0.1,0,0.3,0,0.5,0c0,0,0,0,0,0c0,0,0,0,0,0l0,0c0,0,0,0,0,0c-0.3-0.1-0.5-0.1-0.6,0c-0.1,0.1-0.2,0.2-0.3,0.3
		c-0.1,0.1-0.1,0.3,0,0.5c0.2,0.4,0.4,0.7,0.6,0.8c0.2,0.1,0.5,0,0.7,0l0,0c0.1,0.2,0.2,0.3,0.3,0.3c-0.1,0.1-0.1,0.2-0.1,0.3
		c0,0.1,0.2,0.2,0.3,0.3c0,0,0,0-0.1,0.1c0,0-0.1,0.1-0.1,0.1c0,0,0,0.1,0,0.1c0,0,0,0.1,0,0.1c0,0.1,0.1,0.1,0.1,0.2c0,0,0,0,0,0
		c0,0,0,0.1,0.1,0.1c0,0.1,0.1,0.1,0.2,0.2C37.8,28.7,37.8,28.7,37.9,28.7L37.9,28.7z"/>
	<path class="st3" d="M38.5,30.2L38.5,30.2c0.1,0,0.2,0,0.3-0.1c0.2-0.1,0.3-0.2,0.4-0.4c0.1-0.2,0.1-0.4,0.1-0.6c0,0,0,0,0,0
		l-0.3,0c0,0,0,0,0,0c0.1,0.4,0,0.7-0.2,0.8c-0.2-0.1-0.3-0.3-0.4-0.6c0-0.1-0.1-0.1-0.1-0.2c0,0,0,0,0,0l-0.3,0.1c0,0,0,0,0,0
		c0,0,0,0,0,0c0.1,0.1,0.1,0.2,0.1,0.3C38.1,29.8,38.3,30,38.5,30.2C38.5,30.2,38.5,30.2,38.5,30.2"/>
	<path class="st3" d="M41.9,32.1C41.9,32.1,42,32.1,41.9,32.1c0.1,0,0.2,0,0.2,0c0,0,0,0,0,0c0,0,0,0,0,0l-0.6-0.3
		c-0.1,0-0.1-0.1-0.1-0.1h0c0,0-0.1,0-0.1,0c0,0,0,0,0,0c0,0,0,0,0,0L41.9,32.1z"/>
	<path class="st3" d="M41.2,32.1C41.1,32.1,41.1,32.1,41.2,32.1C41.1,32.1,41.1,32.1,41.2,32.1l0,0.3c0,0,0,0,0,0h0l0.3,0
		c0,0,0,0,0,0c0,0,0,0,0,0l0-0.3c0,0,0,0,0,0L41.2,32.1z"/>
	<path class="st3" d="M41.5,33.4C41.5,33.4,41.5,33.4,41.5,33.4C41.5,33.4,41.5,33.4,41.5,33.4v0.3c0,0,0,0,0,0h0l0.3,0c0,0,0,0,0,0
		c0,0,0,0,0,0l0-0.3c0,0,0,0,0,0L41.5,33.4z"/>
	<path class="st3" d="M42,33.7C42,33.7,42,33.7,42,33.7C42,33.7,42,33.7,42,33.7l0.7,0.4c0,0,0,0,0.1,0c0,0,0.1,0,0.1-0.1
		c0,0,0,0,0,0c0,0,0,0,0,0l-0.6-0.3c-0.1,0-0.1,0-0.1,0C42.1,33.6,42,33.6,42,33.7"/>
	<path class="st3" d="M42.1,34.3C42.1,34.3,42.1,34.3,42.1,34.3l-0.2,0c0,0-0.1,0-0.1,0c0,0,0,0-0.1,0.1l-0.1,0.2c0,0,0,0,0,0
		c0,0,0,0-0.1,0c0,0-0.1,0-0.1-0.1c0,0-0.1-0.1-0.1-0.1c0,0-0.1-0.1-0.1-0.1c0,0,0,0,0,0c0,0,0,0,0,0c0,0,0-0.1-0.1-0.1
		c0,0,0-0.1,0-0.1c0,0,0-0.1,0-0.1c0,0,0-0.1,0.1-0.1c0,0,0,0,0,0l0,0c0,0,0,0,0,0h0c-0.1,0-0.1,0-0.2,0c-0.1,0-0.1,0-0.1,0
		c0,0-0.1,0-0.1-0.1c0,0-0.1-0.1-0.1-0.1c0,0,0,0,0,0c0,0,0,0,0,0c-0.1-0.1-0.1-0.2-0.1-0.3c0-0.1,0-0.1,0-0.2
		c0.1,0.1,0.3,0.1,0.3,0.1c0.1,0,0.1-0.1,0.1-0.2c0-0.1-0.1-0.2-0.1-0.3c-0.2-0.2-0.4-0.3-0.6-0.2c0,0,0,0,0,0l0,0.3
		c-0.1,0-0.1-0.1-0.2-0.1c-0.1,0-0.1-0.1-0.2-0.2c0,0,0,0,0,0l0,0c0,0,0,0,0-0.1c0-0.1-0.1-0.1-0.1-0.1c0,0,0-0.1,0-0.1
		c0,0,0,0,0-0.1c0,0,0,0,0-0.1c0,0,0,0,0-0.1c0,0,0,0,0.1-0.1c0,0,0.1-0.1,0.1-0.1c0,0,0.1-0.1,0.1-0.1l0.3-0.2
		c0.1-0.1,0.2-0.1,0.2-0.2c0.1-0.1,0.1-0.1,0.2-0.2c0.1,0,0.1-0.1,0.2-0.2l0.2-0.1c0,0,0,0,0,0l0,0c0,0,0,0,0,0c-0.1,0-0.1,0-0.2,0
		c-0.1,0-0.1,0-0.2,0.1c-0.1,0.1-0.2,0.1-0.3,0.2c-0.1,0.1-0.2,0.1-0.3,0.1c-0.1,0-0.2,0.1-0.3,0.1c-0.1,0-0.1,0-0.2,0.1
		c0.1-0.1,0.2-0.3,0.3-0.5c0-0.1,0-0.2,0.1-0.3c0-0.1,0-0.2,0-0.4c0-0.3,0-0.4,0-0.5c-0.1-0.1-0.2,0-0.3,0c-0.1,0.1-0.2,0.2-0.2,0.3
		c0,0.1,0,0.2,0,0.2c0,0.1,0,0.1,0,0.1c0,0,0,0,0.1,0l0,0c0,0,0,0,0,0.1c0,0.1,0,0.1,0,0.2c0,0.4-0.1,0.6-0.3,0.8h0
		c-0.3,0-0.6-0.2-1.1-0.6c0,0,0,0,0,0l0,0c0,0,0,0,0,0c0,0,0,0,0,0c0.1,0.2,0.2,0.3,0.3,0.4c0.1,0.1,0.2,0.2,0.2,0.2
		c0.2,0.1,0.3,0.1,0.6,0.1c0.1,0,0.2,0,0.4-0.1c0.1,0,0.3-0.1,0.4-0.1L40,31.8c0,0-0.1,0.1-0.1,0.1c0,0-0.1,0.1-0.1,0.1
		c0,0-0.1,0.1-0.1,0.1c0,0,0,0-0.1,0.1c0,0.1-0.1,0.1-0.1,0.2c0,0.1,0,0.1,0.1,0.2c0,0,0,0.1,0.1,0.1c0,0,0,0,0,0
		c0,0,0.1,0.1,0.1,0.1c0,0,0.1,0.1,0.1,0.1c0.1,0,0.1,0.1,0.2,0.1c0.1,0,0.1,0,0.2,0.1c0,0.1,0,0.3,0,0.4c0,0.1,0.1,0.2,0.1,0.3
		c0,0,0,0,0,0c0,0,0,0,0,0c0.1,0.1,0.1,0.2,0.2,0.2c0.1,0,0.2,0.1,0.3,0.1c0,0.1-0.1,0.1-0.1,0.2c0,0.1,0,0.2,0.1,0.2c0,0,0,0,0,0
		c0,0,0,0,0,0c0.1,0.1,0.1,0.1,0.2,0.2c0.1,0.1,0.1,0.1,0.2,0.1c0,0,0.1,0,0.1,0c0,0,0.1,0,0.1,0c0.1,0,0.2-0.1,0.3-0.1
		C42,34.6,42.1,34.5,42.1,34.3C42.1,34.3,42.1,34.3,42.1,34.3L42.1,34.3z"/>
	<path class="st3" d="M41.1,34.9l-0.3,0c0,0,0,0,0,0l0,0.3c0,0,0,0,0,0h0l0.3,0c0,0,0,0,0,0c0,0,0,0,0,0L41.1,34.9
		C41.1,34.9,41.1,34.9,41.1,34.9"/>
	<path class="st3" d="M43.9,36.5l0.2,0l0.1,0.2c0,0,0,0,0,0c0,0,0,0,0,0l0.3-0.1c0,0,0,0,0,0c0,0,0,0,0,0l-0.1-0.3c0,0,0,0,0,0
		l-0.2,0l-0.1-0.3c0,0,0,0,0,0l-0.3,0.1c0,0,0,0,0,0c0,0,0,0,0,0L43.9,36.5C43.8,36.5,43.8,36.5,43.9,36.5"/>
	<path class="st3" d="M47.1,41.2c-0.1,0-0.1,0-0.2,0c0,0-0.1,0-0.1,0.1c0,0,0,0,0,0c0,0,0,0,0,0l0.7,0.1c0,0,0,0,0,0
		c0.1,0,0.1,0,0.2-0.1c0,0,0,0,0,0c0,0,0,0,0,0L47.1,41.2z"/>
	<path class="st3" d="M48.7,40.4C48.7,40.4,48.7,40.4,48.7,40.4l-0.2,0.2c0,0,0,0,0,0c0,0.1,0,0.1,0,0.1c0,0,0,0,0,0c0,0,0,0,0,0
		c-0.2-0.1-0.2-0.2-0.1-0.4c0,0,0,0,0,0l0,0c0,0,0,0,0,0c-0.2,0.2-0.4,0.2-0.7,0c0,0-0.1-0.1-0.1-0.1c0,0,0,0,0-0.1c0,0,0-0.1,0-0.1
		c0,0,0,0,0,0l0,0c0,0,0,0,0,0c-0.1,0-0.1,0-0.2,0c-0.1,0-0.1,0-0.2,0c0,0-0.1,0-0.1,0c0,0-0.1,0-0.1-0.1c0,0,0,0,0,0c0,0,0,0,0,0
		c0,0-0.1-0.1-0.1-0.1c0,0,0-0.1,0-0.1c0,0,0-0.1,0-0.2c0-0.1,0.1-0.1,0.1-0.2l0.6-0.9c0,0,0.1-0.1,0.1-0.1c0,0,0.1-0.1,0.1-0.1
		c0,0,0,0,0,0l0,0c0,0,0,0,0,0c0,0-0.1,0-0.1,0c0,0-0.1,0-0.1,0.1c0,0-0.1,0.2-0.3,0.4c-0.2,0.3-0.3,0.4-0.4,0.6
		c-0.1,0.1-0.1,0.2-0.2,0.2c-0.1,0-0.1,0.1-0.1,0.1c0,0-0.1,0-0.1,0c0,0-0.1,0-0.1-0.1c0,0,0,0,0,0l0,0c0,0,0,0,0,0
		c0,0-0.1-0.1-0.2-0.1c-0.1,0-0.1-0.1-0.2-0.1c-0.1,0-0.1-0.1-0.2-0.1c0,0,0,0-0.1,0c0,0,0.1,0,0.1,0c0.1,0,0.1,0,0.2,0
		c0.1,0,0.2-0.1,0.3-0.2c0.1-0.1,0.1-0.1,0.1-0.2c0-0.1,0-0.1,0-0.1c0,0-0.1,0-0.1,0c-0.1,0-0.1,0-0.2,0c-0.1,0-0.2,0-0.3,0.1
		c-0.1,0-0.2,0.1-0.3,0.1c-0.1,0-0.1-0.1-0.2-0.1c-0.1,0-0.1-0.1-0.2-0.1c0,0,0,0,0,0l0,0c0,0,0,0,0,0c0,0,0,0,0,0
		c0,0-0.1-0.1-0.1-0.1c0,0,0-0.1,0-0.1c0,0,0-0.1,0-0.1c0,0,0-0.1,0.1-0.1c0,0,0,0,0,0l0,0c0,0,0,0,0,0c-0.1,0-0.1,0-0.2,0
		c-0.1,0-0.1,0-0.2-0.1c-0.1,0-0.2-0.1-0.2-0.1c-0.1,0-0.2-0.1-0.2-0.2c-0.1-0.1-0.1-0.1-0.2-0.2c-0.1-0.1-0.1-0.1-0.2-0.2
		c-0.2-0.2-0.4-0.5-0.5-0.6c-0.1-0.2-0.1-0.3,0-0.4c0,0,0.1-0.1,0.2-0.1c0,0,0,0,0,0c0,0,0,0,0,0l0-0.1c0,0,0,0,0,0
		c-0.2,0.1-0.4,0.1-0.5,0.2c-0.1,0.1-0.2,0.3-0.1,0.5c0.1,0.2,0.2,0.4,0.5,0.7c0.1,0.1,0.2,0.2,0.3,0.3c0.1,0.1,0.2,0.2,0.3,0.2
		c0.1,0.1,0.2,0.1,0.3,0.2c0.1,0,0.2,0.1,0.3,0.1c0,0,0,0.1,0,0.1c0,0,0,0.1,0,0.1c0,0,0,0.1,0.1,0.1c0,0,0.1,0.1,0.1,0.1
		c0,0,0,0,0.1,0c0,0,0,0,0.1,0c0,0,0,0,0,0c0,0,0,0,0,0c0,0,0,0,0.1,0.1c0,0,0.1,0,0.1,0.1c0,0,0,0,0,0c0,0,0,0,0,0c0,0,0,0,0,0
		c0,0,0,0,0,0c0,0,0,0,0,0c0,0,0.1,0,0.1,0c0,0,0,0,0,0c0,0-0.1,0.1-0.1,0.2c0,0.1-0.1,0.1-0.1,0.2c0,0.1,0,0.1,0,0.2
		c0,0.1,0.1,0.1,0.2,0.2c0,0,0.1,0.1,0.1,0.1c0,0,0,0,0,0c0,0,0.1,0,0.1,0c0,0,0.1,0,0.1-0.1c0,0,0.1-0.1,0.1-0.1c0,0,0,0,0-0.1
		c0,0,0,0,0-0.1c0,0,0-0.1,0-0.1v0c0,0,0,0,0.1,0c0,0,0.1,0,0.1,0.1l0.1,0.1c0,0,0,0,0.1,0.1c0,0,0,0,0.1,0c0,0,0,0,0,0
		c0.1,0.1,0.1,0.1,0.2,0.1c0.1,0,0.1,0,0.2,0c0,0,0.1,0,0.1-0.1c0,0,0,0,0.1,0c0,0,0,0.1,0,0.1c0,0,0,0.1,0,0.1c0,0,0,0.1,0.1,0.1
		c0,0,0.1,0.1,0.1,0.1c0,0,0,0,0.1,0c0,0,0,0,0,0v0c0,0,0,0,0,0c0,0,0,0,0,0c0.1,0,0.1,0.1,0.2,0.1c0,0,0.1,0,0.1,0.1
		c0,0,0.1,0,0.1,0c0,0,0.1,0,0.1,0c0,0,0,0.1,0,0.1c0,0,0,0.1,0,0.1c0,0,0,0.1,0.1,0.1c0,0,0.1,0.1,0.1,0.1c0.2,0.1,0.4,0.1,0.6,0
		c0,0.1,0.1,0.2,0.2,0.3c0,0,0.1,0,0.1,0c0,0,0.1,0,0.1,0c0.1,0,0.2-0.1,0.3-0.2C48.7,40.6,48.7,40.5,48.7,40.4
		C48.7,40.4,48.7,40.4,48.7,40.4 M45.6,38.6c-0.1,0-0.2,0-0.3-0.1c0.1-0.1,0.2-0.1,0.3-0.1c0.1,0,0.2,0,0.2,0c0,0,0,0,0,0.1
		c0,0,0,0.1,0,0.1C45.8,38.6,45.7,38.6,45.6,38.6 M45.3,39.3C45.3,39.3,45.3,39.3,45.3,39.3C45.3,39.4,45.3,39.4,45.3,39.3
		c-0.1,0.1-0.1,0-0.2,0c0,0-0.1-0.1-0.1-0.1c0,0,0-0.1,0-0.1c0,0,0-0.1,0-0.1c0,0,0-0.1,0-0.1c0,0.1,0.1,0.1,0.1,0.1
		c0,0.1,0.1,0.1,0.1,0.2C45.3,39.2,45.3,39.2,45.3,39.3"/>
	<path class="st3" d="M50.9,41.7C50.9,41.7,50.8,41.7,50.9,41.7C50.8,41.7,50.8,41.7,50.9,41.7l-0.2,0.1c0,0-0.1,0.1-0.1,0.1
		c0,0,0,0.1,0,0.2c0,0.1,0,0.2,0,0.3c0,0.1-0.1,0.1-0.3,0.2c-0.1,0.1-0.3,0.1-0.5,0.1c-0.1,0-0.2,0-0.4-0.1c-0.1,0-0.1-0.1-0.2-0.1
		c0,0,0,0,0,0l0,0c0,0,0,0,0,0c0,0,0,0,0,0c0.1,0.2,0.3,0.3,0.4,0.3c0.1,0,0.2,0.1,0.3,0.1c0.1,0,0.2,0,0.4-0.1
		c0.2-0.1,0.4-0.3,0.5-0.5C50.9,42.1,50.9,41.9,50.9,41.7"/>
	<path class="st3" d="M51.2,42.7C51.2,42.7,51.2,42.7,51.2,42.7C51.2,42.7,51.2,42.7,51.2,42.7c0.2-0.2,0.3-0.3,0.3-0.4
		c0-0.1,0.1-0.2,0.1-0.3l0.2-0.6c0-0.1,0.1-0.3,0.2-0.5c0,0,0,0,0,0c0,0,0,0,0,0c-0.2,0.1-0.3,0.2-0.3,0.3c0,0,0,0.1-0.1,0.2
		l-0.2,0.8c0,0.1-0.1,0.2-0.1,0.3C51.3,42.5,51.2,42.5,51.2,42.7C51.2,42.6,51.2,42.7,51.2,42.7L51.2,42.7z"/>
	<path class="st3" d="M52.5,41.6C52.5,41.6,52.5,41.6,52.5,41.6l-0.3,0.1c0,0,0,0,0,0c0,0,0,0,0,0l0.1,0.2c0,0,0,0,0,0c0,0,0,0,0,0
		l0.2-0.1c0,0,0,0,0,0c0,0,0,0,0,0L52.5,41.6z"/>
	<path class="st3" d="M52.4,42.4C52.4,42.4,52.4,42.4,52.4,42.4l-0.2,0.1c0,0-0.1,0.1-0.1,0.1c0,0,0,0.1,0,0.2c0,0.1,0,0.2,0,0.3
		c0,0.1-0.1,0.1-0.3,0.2c-0.1,0.1-0.3,0.1-0.5,0.1c-0.1,0-0.2,0-0.4-0.1c-0.1,0-0.1-0.1-0.2-0.1c0,0,0,0,0,0l0,0c0,0,0,0,0,0
		c0,0,0,0,0,0c0.2,0.2,0.3,0.3,0.4,0.3c0.1,0,0.2,0.1,0.3,0.1c0.1,0,0.3,0,0.4-0.1c0.2-0.1,0.4-0.3,0.5-0.5
		C52.4,42.8,52.4,42.6,52.4,42.4C52.4,42.4,52.4,42.4,52.4,42.4"/>
	<path class="st3" d="M54.4,42l-0.7,0.1c-0.1,0-0.1,0-0.1,0c0,0-0.1,0.1-0.1,0.1c0,0,0,0,0,0c0,0,0,0,0,0c0,0,0,0,0,0l0.7-0.1
		C54.3,42.1,54.4,42.1,54.4,42C54.4,42,54.4,42,54.4,42C54.4,42,54.4,42,54.4,42"/>
	<path class="st3" d="M54.1,42.8L54.1,42.8C54.1,42.8,54.1,42.8,54.1,42.8L54,42.9c0,0,0,0-0.1,0.1c0,0,0,0.1,0,0.1l0,0.2
		c0,0,0,0,0,0.1c0,0-0.1,0-0.1,0.1c0,0-0.1,0-0.2,0c-0.1,0-0.1,0-0.2,0c-0.1,0-0.1,0-0.1-0.1c0,0-0.1,0-0.1-0.1c0,0,0-0.1-0.1-0.1
		c0,0,0-0.1,0-0.1l0.3-1.4c0,0,0,0,0,0c0,0,0,0,0,0c-0.1,0.1-0.2,0.1-0.2,0.2c0,0,0,0.2-0.1,0.6C53,42.6,53,42.9,52.9,43
		c0,0.1,0,0.2,0,0.2c0,0.1,0,0.1,0.1,0.2c0,0,0.1,0.1,0.1,0.1c0.1,0,0.1,0.1,0.2,0.1c0.1,0,0.2,0.1,0.2,0.1c0,0,0,0,0.1,0
		c0.1,0,0.1,0,0.1,0c0.1,0,0.1-0.1,0.2-0.1c0.1-0.1,0.1-0.1,0.1-0.3C54.2,43.1,54.2,43,54.1,42.8C54.2,42.8,54.2,42.8,54.1,42.8"/>
	<path class="st3" d="M53.3,43.7C53.3,43.7,53.3,43.7,53.3,43.7l-0.2,0.1c0,0,0,0,0,0l0.1,0.2c0,0,0,0,0,0h0c0,0,0,0,0,0l0.2-0.1
		c0,0,0,0,0,0c0,0,0,0,0,0L53.3,43.7z"/>
	<path class="st3" d="M57.6,45.5L57,45.8c-0.1,0-0.1,0-0.1,0.1c0,0,0,0.1-0.1,0.1c0,0,0,0,0,0c0,0,0,0,0,0c0,0,0,0,0,0l0.7-0.2
		C57.6,45.7,57.6,45.7,57.6,45.5C57.6,45.6,57.6,45.6,57.6,45.5C57.6,45.5,57.6,45.5,57.6,45.5"/>
	<path class="st3" d="M57.5,44.4l-0.2-0.1c0,0,0,0,0.1,0c0,0,0.1-0.1,0.1-0.1c0,0,0.1-0.1,0.1-0.1c0,0,0-0.1,0-0.1
		c0-0.1,0-0.1,0-0.2c0-0.1,0-0.1,0-0.2c0-0.1,0-0.1,0-0.2c0,0,0-0.1,0-0.1c0,0,0,0,0,0c0,0,0,0,0,0c0,0,0,0-0.1,0.1c0,0,0,0-0.1,0.1
		c0,0,0,0-0.1,0.1c0,0,0,0,0,0.1c0,0,0,0.1,0,0.1c0,0,0,0.1,0,0.1c0,0,0,0.1,0,0.1c0,0,0,0.1,0,0.1c0,0,0,0.1-0.1,0.1
		c0,0-0.1,0-0.2,0.1c0,0-0.1,0-0.1,0c0,0-0.1,0-0.1,0c0,0,0,0,0,0c0,0,0,0,0,0c0,0,0,0,0,0.1c0,0,0,0,0,0.1c0,0,0,0,0,0c0,0,0,0,0,0
		l0.3,0.1c0,0,0.1,0,0.1,0.1c0,0,0.1,0,0.1,0.1c0,0,0.1,0,0.1,0.1c0,0,0,0,0,0c0,0,0,0.1-0.3,0.1c-0.3,0.1-0.6,0.1-0.9,0
		c-0.1,0-0.2,0-0.2-0.1c-0.1,0-0.1-0.1-0.2-0.1c0,0-0.1-0.1-0.1-0.2c0-0.1,0-0.1,0-0.2c0-0.1,0.1-0.3,0.3-0.5c0,0,0,0,0,0
		c0,0,0,0,0,0l0,0c0,0,0,0,0,0c-0.2,0.3-0.3,0.5-0.4,0.7c0,0.1,0,0.2,0,0.3c0,0.1,0.1,0.2,0.1,0.2c0.1,0.1,0.1,0.1,0.2,0.2
		c0.1,0,0.2,0.1,0.3,0.1c0.1,0,0.2,0,0.3,0c0.2,0,0.5-0.1,0.7-0.2c0.3-0.1,0.4-0.2,0.4-0.4c0,0,0-0.1,0-0.1
		C57.6,44.5,57.6,44.4,57.5,44.4"/>
	<path class="st3" d="M56.9,43.4C56.9,43.4,56.9,43.4,56.9,43.4C56.9,43.4,56.9,43.4,56.9,43.4l0.2-0.2c0,0,0,0,0,0c0,0,0,0,0,0
		L56.9,43c0,0,0,0,0,0l-0.2,0.2c0,0,0,0,0,0c0,0,0,0,0,0L56.9,43.4z"/>
	<path class="st3" d="M59.1,43.5C59.1,43.5,59.1,43.5,59.1,43.5l0.7-0.3c0.1,0,0.1-0.1,0.1-0.2c0,0,0,0,0,0c0,0,0,0,0,0l-0.6,0.3
		c-0.1,0-0.1,0.1-0.1,0.1C59.1,43.4,59.1,43.4,59.1,43.5C59.1,43.5,59.1,43.5,59.1,43.5C59.1,43.5,59.1,43.5,59.1,43.5"/>
	<path class="st3" d="M59.5,45C59.5,45,59.5,45,59.5,45l-0.2,0.2l-0.2-0.2c0,0,0,0,0,0l-0.2,0.2c0,0,0,0,0,0c0,0,0,0,0,0l0.2,0.2
		c0,0,0,0,0,0c0,0,0,0,0,0l0.1-0.2l0.2,0.2c0,0,0,0,0,0l0.2-0.2c0,0,0,0,0,0c0,0,0,0,0,0L59.5,45z"/>
	<path class="st3" d="M60.3,43.9L60.3,43.9C60.3,43.9,60.3,43.9,60.3,43.9l-0.2,0.2c0,0,0,0.1,0,0.1c0,0,0,0.1,0,0.1l0.1,0.1
		c0,0,0,0,0,0.1c0,0,0,0,0,0.1c0,0-0.1,0-0.1,0c0,0-0.1,0-0.2,0c-0.1,0-0.1,0-0.1,0c0,0,0,0,0,0c0,0,0,0,0,0c0,0-0.1,0-0.1,0
		c0,0-0.1,0-0.1-0.1c0,0,0-0.1,0-0.1c0,0,0-0.1,0-0.1c0,0,0,0,0,0l0,0c0,0,0,0,0,0c0,0.1-0.1,0.1-0.1,0.1c0,0-0.1,0.1-0.1,0.1
		c0,0-0.1,0-0.1,0c0,0-0.1,0-0.1,0c0,0,0,0,0,0c0,0,0,0,0,0c-0.1,0-0.1,0-0.2,0c0,0-0.1,0-0.1-0.1c0,0-0.1,0-0.1-0.1
		c0,0,0-0.1,0-0.1l0-1.5c0,0,0,0,0,0c0,0,0,0,0,0c-0.1,0.1-0.2,0.2-0.2,0.2c0,0,0,0.2,0,0.6c0,0.2,0,0.4,0,0.5c0,0.1,0,0.2,0,0.3
		c0,0.1,0,0.2,0,0.2c0,0.1,0,0.1,0.1,0.1c0,0,0.1,0.1,0.2,0.1c0.1,0,0.1,0,0.2,0c0,0,0,0,0,0c0,0,0,0,0,0c0,0,0,0,0,0
		c0.1,0,0.2,0,0.3,0c0.1,0,0.2-0.1,0.2-0.2c0,0.1,0.1,0.1,0.1,0.2c0.1,0.1,0.1,0.1,0.2,0.1c0,0,0,0,0,0c0,0,0,0,0,0c0,0,0.1,0,0.1,0
		c0.1,0,0.1,0,0.2,0c0.1,0,0.2,0,0.2-0.1c0.1,0,0.1-0.1,0.2-0.2c0-0.1,0.1-0.2,0.1-0.3C60.4,44.2,60.4,44.1,60.3,43.9
		C60.3,43.9,60.3,43.9,60.3,43.9"/>
	<path class="st3" d="M60.1,45.1C60.1,45,60.1,45,60.1,45.1l-0.2,0.2c0,0,0,0,0,0l0.2,0.2c0,0,0,0,0,0c0,0,0,0,0,0l0.2-0.2
		c0,0,0,0,0,0c0,0,0,0,0,0L60.1,45.1z"/>
	<path class="st3" d="M63,44.7"/>
	<path class="st3" d="M62.8,44.1C62.8,44.1,62.8,44.1,62.8,44.1C62.8,44.1,62.8,44.1,62.8,44.1l-0.1,0.2c0,0,0,0.1,0,0.1
		c0,0,0,0.1,0.1,0.2c0.1,0.1,0.1,0.2,0.1,0.2c0,0.1,0,0.2-0.1,0.3c-0.1,0.1-0.2,0.2-0.4,0.3c-0.1,0.1-0.2,0.1-0.4,0.1
		c-0.1,0-0.1,0-0.2,0c0,0,0,0,0,0l0,0c0,0,0,0,0,0c0,0,0,0,0,0c0.2,0.1,0.4,0.1,0.5,0.1c0,0,0,0,0,0c0.2,0,0.4-0.1,0.6-0.3
		c0.2-0.2,0.2-0.5,0.2-0.7C63,44.5,62.9,44.3,62.8,44.1"/>
	<path class="st3" d="M64.2,42.8C64.2,42.8,64.3,42.8,64.2,42.8c0.1,0,0.3-0.1,0.4-0.3l0.2,0.1c0,0,0,0,0,0c0,0,0,0,0,0l0-0.2
		c0,0,0,0,0,0c0,0-0.1,0-0.1,0c0-0.1,0-0.2,0-0.2c0-0.1,0-0.1-0.1-0.1c0,0-0.1,0-0.1,0c-0.1,0-0.1,0-0.2,0.1
		c-0.1,0.1-0.1,0.2-0.1,0.3c0,0.1,0.1,0.1,0.1,0.2c-0.1,0.1-0.3,0.3-0.4,0.3c0,0,0,0,0,0c0,0,0,0,0,0C64.2,42.8,64.2,42.8,64.2,42.8
		 M64.5,42.1C64.5,42,64.5,42,64.5,42.1C64.5,42,64.5,42,64.5,42.1C64.5,42,64.5,42,64.5,42.1C64.6,42,64.6,42,64.5,42.1
		c0.1,0,0.1,0,0.1,0.1c0,0,0,0,0,0C64.5,42.1,64.5,42.1,64.5,42.1"/>
	<path class="st3" d="M64.8,43.4c-0.1,0-0.2,0.1-0.2,0.4c0,0.1,0,0.2,0,0.3c0,0.1,0,0.1,0.1,0.1c0.1,0,0.1,0,0.2,0
		c0.1,0,0.2-0.1,0.3-0.2c0.1,0,0.1,0.1,0.1,0.1c0,0,0,0.1-0.2,0.2c0,0-0.1,0-0.1,0.1c0,0-0.1,0-0.1,0c0,0-0.1,0-0.1,0
		c0,0-0.1,0-0.1,0c0,0,0,0,0,0l0,0c0,0,0,0,0,0l-0.2,0c0-0.1-0.1-0.3-0.1-0.4C64,44,63.9,44,63.8,44c0,0-0.1,0-0.1,0.1
		c0,0-0.1,0.1-0.1,0.1c0,0,0,0.1,0,0.1c0,0,0,0.1,0,0.1c0,0,0,0.1,0,0.1c0,0,0,0.1,0,0.1c0,0,0,0.1,0.1,0.1c0,0,0.1,0.1,0.1,0.1
		c0,0,0.1,0,0.1,0c0.1,0,0.1,0,0.2,0l0.1,0c0,0.2-0.1,0.4-0.3,0.6c-0.2,0.2-0.4,0.3-0.6,0.3c-0.1,0-0.2,0-0.3,0c0,0,0,0,0,0l0,0
		c0,0,0,0,0,0c0,0,0,0,0,0c0.2,0.1,0.4,0.1,0.5,0.1c0,0,0,0,0,0c0.2,0,0.4-0.2,0.6-0.4c0.1-0.1,0.1-0.3,0.2-0.6l0.1,0
		c0,0,0.1,0,0.1,0c0,0,0,0,0,0c0.1,0,0.1,0,0.2,0c0.1,0,0.1,0,0.2-0.1c0.1,0,0.1-0.1,0.2-0.1c0.1,0,0.1-0.1,0.2-0.1
		c0.1-0.1,0.1-0.2,0.1-0.4c0-0.2-0.1-0.3-0.2-0.4C65,43.5,64.9,43.4,64.8,43.4 M64.7,43.8C64.7,43.8,64.7,43.8,64.7,43.8
		C64.8,43.8,64.8,43.8,64.7,43.8c0.1-0.1,0.1-0.1,0.1,0c0,0,0.1,0,0.1,0c0,0,0,0,0,0C64.9,43.9,64.8,43.9,64.7,43.8
		C64.8,43.9,64.7,43.9,64.7,43.8 M64,44.5c0,0-0.1,0-0.1,0c0,0-0.1,0-0.1,0c-0.1,0-0.1,0-0.1-0.1c0,0,0,0,0,0c0,0,0,0,0,0
		c0,0,0,0,0,0c0,0,0,0,0,0c0,0,0,0,0,0c0,0,0.1,0,0.1,0C63.9,44.4,64,44.4,64,44.5"/>
	<path class="st3" d="M64.6,42.7C64.6,42.7,64.6,42.7,64.6,42.7L64.4,43c0,0,0,0,0,0l0.2,0.1c0,0,0,0,0,0c0,0,0,0,0,0c0,0,0,0,0,0
		l0.1-0.3c0,0,0,0,0,0c0,0,0,0,0,0L64.6,42.7z"/>
	<path class="st3" d="M67.4,42.9C67.5,42.9,67.5,42.9,67.4,42.9c0.1,0,0.1,0,0.2,0c0.1,0,0.1,0,0.1-0.1c0,0,0-0.1,0.1-0.1
		c0,0,0.1,0,0.1,0c0.2,0,0.2-0.2,0.2-0.4c0-0.1,0-0.1-0.1-0.2c0,0,0,0,0,0c0,0,0,0,0,0l0,0c0,0,0,0,0,0c0,0.2,0,0.3-0.1,0.3
		c0,0-0.1,0-0.2-0.1c0,0,0,0,0,0c0,0,0,0,0,0l0,0c0,0,0,0,0,0c0,0.2,0,0.3-0.1,0.3c0,0,0,0,0,0c0,0-0.1-0.1-0.1-0.2c0,0,0,0,0,0
		c0,0,0,0,0,0l0,0c0,0,0,0,0,0c0,0.1,0,0.2,0,0.2C67.4,42.8,67.4,42.9,67.4,42.9"/>
	<path class="st3" d="M70.8,42.5c-0.1,0-0.3,0.1-0.4,0.1c-0.1,0-0.3,0.1-0.4,0.1c-0.1,0-0.2,0-0.4,0.1c-0.1,0-0.2,0-0.3,0
		c0.1-0.1,0.2-0.2,0.3-0.2c0.1-0.1,0.3-0.2,0.5-0.3l0.2-0.1c0,0,0,0,0,0c0-0.1,0-0.1,0-0.2c0-0.1,0-0.1,0-0.2c0,0,0,0-0.1-0.1
		c0,0-0.1,0-0.1,0c-0.1,0-0.1,0-0.2,0c-0.1,0-0.1,0-0.2,0c0,0,0,0,0,0c0,0,0,0.1,0,0.1c0,0.1,0,0.1,0,0.2c0,0,0,0,0,0l0.1,0
		c-0.1,0.1-0.2,0.2-0.3,0.3c-0.1,0.1-0.2,0.2-0.3,0.3c-0.1,0.1-0.1,0.2-0.1,0.4c0,0,0,0,0,0c0,0,0,0,0,0c0.1,0,0.1,0,0.3,0
		c0.1,0,0.3,0,0.5,0c-0.1,0.1-0.2,0.1-0.2,0.2c-0.1,0.1-0.1,0.1-0.2,0.1c-0.1,0-0.1,0.1-0.2,0.1c-0.1,0-0.1,0.1-0.2,0.1c0,0,0,0,0,0
		v0c0,0-0.1,0-0.1,0c-0.1,0-0.1,0-0.1,0c0,0-0.1,0-0.1,0c0,0-0.1,0-0.1,0c0,0-0.1,0-0.1-0.1l-0.2-0.1c-0.1-0.1-0.1-0.1-0.2-0.1
		c0,0-0.1,0-0.1,0.1c0,0.1-0.1,0.1-0.1,0.2c0,0.1-0.1,0.1-0.1,0.2c0,0-0.1,0.1-0.1,0.1c0,0-0.1,0-0.1,0.1c0,0-0.1,0-0.1,0
		c0,0,0,0,0,0v0c0,0,0,0-0.1,0c-0.1,0-0.1,0-0.2,0c0,0-0.1,0-0.1,0c0,0-0.1-0.1-0.1-0.1c0,0-0.1-0.1-0.1-0.2l-0.3-0.9c0,0,0,0,0,0
		l0,0c0,0,0,0,0,0c-0.1,0.1-0.1,0.2-0.1,0.3c0,0.1,0.1,0.2,0.1,0.3c0,0.1,0.1,0.1,0.1,0.2c0,0.1,0,0.1,0,0.1c0,0.2-0.1,0.3-0.4,0.4
		c-0.2,0-0.4,0-0.4-0.1c0,0,0,0,0,0l0,0c0,0,0,0,0,0c0,0.1-0.1,0.2,0,0.3c0,0,0,0.1,0.1,0.1c0,0,0.1,0,0.2,0c0,0,0.1,0,0.2,0
		c0.2,0,0.3-0.1,0.4-0.2c0.1-0.1,0.2-0.2,0.2-0.3c0,0.1,0.1,0.1,0.1,0.2c0,0.1,0.1,0.1,0.1,0.1c0,0,0.1,0,0.1,0c0.1,0,0.1,0,0.2,0
		c0,0,0.1,0,0.1,0c0,0,0,0,0,0c0,0,0,0,0,0c0,0,0,0,0,0c0.1,0,0.2-0.1,0.3-0.1c0.1-0.1,0.1-0.1,0.2-0.2c0,0,0.1,0,0.1,0.1
		c0.1,0,0.1,0,0.2,0.1c0.1,0,0.1,0,0.2,0c0.1,0,0.1,0,0.1,0c0,0,0.1,0,0.1-0.1c0,0,0-0.1,0-0.1c0.1,0,0.1,0,0.2,0c0.1,0,0.2,0,0.3,0
		c0,0,0.1,0,0.1,0c0,0,0,0,0,0c0,0,0,0,0,0c0,0,0,0,0,0c0.1,0,0.2-0.1,0.3-0.1c0.1,0,0.2-0.1,0.2-0.2c0.1-0.1,0.1-0.1,0.2-0.2l0,0
		c0.1-0.1,0.1-0.1,0.1-0.1c0.1-0.1,0.2-0.1,0.3-0.2c0.1-0.1,0.2-0.1,0.4-0.2c0,0,0,0,0.1,0l0.1,0c0,0,0.1,0,0.1,0c0,0,0.1,0,0.1,0
		c0,0,0,0,0,0L70.8,42.5C70.9,42.5,70.8,42.5,70.8,42.5C70.8,42.5,70.8,42.5,70.8,42.5 M68.2,43.7C68.2,43.7,68.2,43.7,68.2,43.7
		C68.2,43.7,68.2,43.7,68.2,43.7c-0.1,0-0.1,0-0.2,0c0,0-0.1,0-0.1,0c0,0,0,0-0.1,0c0,0,0,0,0,0c0,0,0,0,0-0.1c0,0,0,0,0-0.1
		c0,0,0,0,0,0c0,0,0,0,0,0c0,0,0,0,0.1,0.1c0,0,0,0.1,0.1,0.1C68.2,43.6,68.2,43.6,68.2,43.7C68.2,43.7,68.2,43.7,68.2,43.7"/>
	<path class="st3" d="M72.1,41.6l-0.4-0.6c-0.1-0.1-0.2-0.3-0.2-0.4c0,0,0,0,0,0c0,0,0,0,0,0c0,0.2,0,0.4,0.1,0.5
		c0,0,0.1,0.1,0.1,0.2l0.4,0.7c0.1,0.1,0.1,0.2,0.2,0.3c0,0,0,0.1,0.1,0.2c0,0,0,0,0,0h0l0,0c0,0,0,0,0,0c0-0.2-0.1-0.4-0.1-0.5
		C72.3,41.8,72.2,41.7,72.1,41.6"/>
	<path class="st3" d="M72.2,41.2L72.2,41.2C72.2,41.2,72.2,41.2,72.2,41.2l0.5-0.6c0-0.1,0-0.1,0-0.2c0,0,0,0,0,0c0,0,0,0,0,0
		L72.2,41c0,0.1-0.1,0.1-0.1,0.1C72.1,41.1,72.2,41.2,72.2,41.2C72.2,41.2,72.2,41.2,72.2,41.2"/>
	<path class="st3" d="M72.9,41.3C72.9,41.3,72.9,41.3,72.9,41.3C72.9,41.3,72.9,41.3,72.9,41.3l0,0.2c0,0.1,0,0.1,0,0.1
		c0,0,0.1,0.1,0.2,0.2c0.1,0.1,0.2,0.1,0.2,0.2c0,0.1,0,0.2,0,0.3c0,0.2-0.1,0.3-0.2,0.5c-0.1,0.1-0.2,0.2-0.3,0.2
		c-0.1,0-0.1,0.1-0.2,0.1c0,0,0,0,0,0l0,0c0,0,0,0,0,0c0,0,0,0,0,0h0c0.2,0,0.4-0.1,0.5-0.1c0.2-0.1,0.3-0.3,0.4-0.5
		c0.1-0.3,0-0.5-0.1-0.7C73.2,41.5,73.1,41.4,72.9,41.3"/>
	<path class="st3" d="M73.9,39.1c-0.1,0.2-0.1,0.4-0.2,0.5c0,0,0,0,0,0c0,0,0,0,0,0c0,0,0,0,0,0c0.1,0,0.1,0,0.1-0.1
		c0.1-0.1,0.2-0.2,0.2-0.5l0.2,0c0,0,0,0,0,0c0,0,0,0,0,0l-0.1-0.2c0,0,0,0,0,0c0,0-0.1,0-0.1,0c0-0.1,0-0.2-0.1-0.2
		c-0.1-0.1-0.2-0.1-0.3-0.1c-0.1,0-0.1,0.1-0.1,0.2c0,0.1,0,0.2,0.1,0.3C73.8,39.1,73.8,39.1,73.9,39.1 M73.8,38.8
		C73.8,38.8,73.8,38.8,73.8,38.8C73.8,38.8,73.8,38.8,73.8,38.8C73.9,38.8,73.9,38.8,73.8,38.8c0.1,0,0.1,0,0.1,0c0,0,0,0,0,0
		C73.8,38.9,73.8,38.8,73.8,38.8"/>
	<path class="st3" d="M74.2,39.5l0,0.3c0,0,0,0,0,0c0,0,0,0,0,0h0l0.3,0c0,0,0,0,0,0l0-0.3c0,0,0,0,0,0c0,0,0,0,0,0L74.2,39.5
		C74.2,39.4,74.2,39.5,74.2,39.5"/>
	<path class="st3" d="M75.7,39.3C75.7,39.3,75.7,39.3,75.7,39.3L75.7,39.3C75.7,39.3,75.7,39.3,75.7,39.3l0,0.2c0,0,0,0.1,0,0.1
		c0,0,0,0,0.1,0.1l0.2,0.1c0,0,0,0,0,0c0,0,0,0.1,0,0.1c0,0-0.1,0.1-0.1,0.1c0,0-0.1,0.1-0.2,0.1c0,0,0,0,0,0c0,0,0,0,0,0
		c-0.1,0.1-0.2,0.1-0.3,0.1c-0.1,0-0.1,0-0.2,0c0.1-0.1,0.1-0.3,0.1-0.3c0-0.1-0.1-0.1-0.2-0.1c-0.1,0-0.2,0-0.3,0.1
		c-0.2,0.2-0.3,0.4-0.3,0.6c0,0,0,0,0,0l0.3,0c0,0.1-0.1,0.1-0.1,0.2c-0.1,0.1-0.1,0.1-0.2,0.2c0,0,0,0,0,0v0c0,0,0,0-0.1,0L74.4,41
		c-0.1-0.1-0.2-0.2-0.3-0.3c-0.1-0.1-0.2-0.1-0.3,0c0,0-0.1,0.1-0.1,0.1c0,0,0,0.1,0,0.2c0,0,0,0.1,0,0.1c0,0,0,0.1,0,0.1
		c0,0,0,0.1,0,0.1s0,0.1,0,0.1c0,0,0.1,0.1,0.1,0.1c0,0,0.1,0,0.2,0c0,0,0.1,0,0.1,0c0,0,0.1,0,0.2-0.1l0,0c0.1,0.2,0,0.4,0,0.6
		c-0.1,0.2-0.2,0.4-0.4,0.5c-0.1,0-0.1,0.1-0.2,0.1c0,0,0,0,0,0l0,0c0,0,0,0,0,0c0,0,0,0,0,0h0c0.2,0,0.4,0,0.5-0.1
		c0.2-0.1,0.3-0.3,0.4-0.6c0-0.2,0-0.4-0.1-0.6l0.1,0c0,0,0,0,0.1,0c0,0,0,0,0,0c0.1,0,0.1-0.1,0.2-0.1c0,0,0.1-0.1,0.1-0.1
		c0-0.1,0.1-0.1,0.1-0.2c0-0.1,0.1-0.1,0.1-0.2c0.1,0,0.2,0,0.4,0c0.1,0,0.2-0.1,0.3-0.1c0,0,0,0,0,0c0,0,0,0,0,0
		c0.1-0.1,0.1-0.1,0.2-0.2c0.1-0.1,0.1-0.1,0.1-0.2c0-0.1,0-0.1,0-0.2c0-0.1-0.1-0.2-0.1-0.3C76,39.5,75.9,39.4,75.7,39.3
		 M74.2,41.1C74.1,41.2,74.1,41.2,74.2,41.1C74,41.2,74,41.2,74,41.2c-0.1,0-0.1,0-0.1,0c0,0,0,0,0,0c0,0,0,0,0,0c0,0,0,0,0,0
		c0,0,0,0,0,0c0,0,0,0,0.1,0c0,0,0,0,0.1,0C74.1,41.1,74.1,41.1,74.2,41.1"/>
	<path class="st3" d="M75.2,39.1L75.2,39.1l0.3,0c0,0,0,0,0,0l0-0.3c0,0,0,0,0,0c0,0,0,0,0,0l-0.3,0c0,0,0,0,0,0L75.2,39.1
		C75.2,39.1,75.2,39.1,75.2,39.1C75.2,39.1,75.2,39.1,75.2,39.1"/>
	<path class="st3" d="M76.5,38.9l-0.5-0.5c-0.1-0.1-0.2-0.2-0.3-0.4c0,0,0,0,0,0s0,0,0,0c0,0.2,0.1,0.4,0.1,0.4c0,0,0.1,0.1,0.1,0.2
		l0.6,0.6c0.1,0.1,0.2,0.2,0.2,0.2c0,0,0.1,0.1,0.1,0.2c0,0,0,0,0,0c0,0,0,0,0,0l0,0c0,0,0,0,0,0c-0.1-0.2-0.1-0.4-0.2-0.5
		C76.7,39,76.6,39,76.5,38.9"/>
	<path class="st3" d="M75.5,38c0,0.1-0.1,0.1-0.1,0.1c0,0,0,0.1,0,0.1c0,0,0,0,0,0h0c0,0,0,0,0,0l0.4-0.5c0,0,0-0.1,0-0.1
		c0,0,0,0,0-0.1c0,0,0,0,0,0c0,0,0,0,0,0c0,0.1-0.1,0.1-0.1,0.1c-0.1,0-0.2,0.1-0.3,0.1c0,0,0-0.1,0.1-0.1c0,0,0.1,0,0.2-0.1
		c0,0,0,0,0,0c0-0.1,0-0.1,0-0.2c0,0-0.1-0.1-0.1-0.1c0,0-0.1,0-0.1,0c-0.1,0.1-0.1,0.2-0.2,0.4c0,0,0,0.1,0,0.1
		C75.3,38,75.4,38,75.5,38"/>
	<path class="st3" d="M77.6,36.9C77.6,36.9,77.6,36.9,77.6,36.9l-0.3,0c0,0,0,0,0,0l0,0.2l-0.3,0c0,0,0,0,0,0l0,0.3c0,0,0,0,0,0
		c0,0,0,0,0,0h0l0.3,0c0,0,0,0,0,0l0-0.2l0.2,0c0,0,0,0,0,0L77.6,36.9C77.6,36.9,77.6,36.9,77.6,36.9"/>
	<path class="st3" d="M78,36.2c0.1,0.2,0.1,0.3,0.1,0.3c0,0-0.1,0-0.2-0.1c0,0,0,0,0,0c0,0,0,0,0,0l0,0c0,0,0,0,0,0
		c0.1,0.1,0.1,0.2,0.1,0.2c0.1,0.1,0.1,0.1,0.2,0.1c0,0,0,0,0,0c0,0,0.1,0,0.1-0.1c0,0,0.1-0.1,0.1-0.2c0,0,0-0.1,0-0.1
		c0,0,0.1,0,0.1-0.1c0.1-0.1,0.1-0.3-0.1-0.4c0,0-0.1-0.1-0.2-0.1c0,0,0,0,0,0c0,0,0,0,0,0l0,0c0,0,0,0,0,0c0.1,0.1,0.2,0.2,0.1,0.3
		C78.2,36.2,78.1,36.2,78,36.2C78,36.1,78,36.1,78,36.2C78,36.2,78,36.2,78,36.2L78,36.2C78,36.2,78,36.2,78,36.2"/>
	<path class="st3" d="M77.7,36.5C77.7,36.5,77.7,36.5,77.7,36.5l0.3-0.7c0-0.1,0-0.1-0.1-0.2c0,0,0,0,0,0c0,0,0,0,0,0l-0.2,0.6
		c0,0.1,0,0.1,0,0.2C77.6,36.4,77.7,36.4,77.7,36.5C77.7,36.5,77.7,36.5,77.7,36.5C77.7,36.5,77.7,36.5,77.7,36.5"/>
	<path class="st3" d="M79.8,37.6C79.8,37.6,79.8,37.6,79.8,37.6l-0.3,0.1c0,0,0,0,0,0l0,0.2l-0.2,0c0,0,0,0,0,0l0,0.2c0,0,0,0,0,0
		c0,0,0,0,0,0h0l0.3,0c0,0,0,0,0,0l0-0.2l0.2,0c0,0,0,0,0,0L79.8,37.6C79.9,37.6,79.8,37.6,79.8,37.6"/>
	<path class="st3" d="M79.3,37.4c0.1,0,0.1,0,0.2-0.1c0,0,0,0,0,0c0,0,0,0,0,0c0.1-0.1,0.1-0.1,0.2-0.2c0-0.1,0.1-0.1,0.1-0.2
		c0-0.1,0-0.1,0-0.2c0-0.1-0.1-0.2-0.2-0.2c-0.1-0.1-0.2-0.2-0.4-0.2c0,0,0,0,0,0l0,0c0,0,0,0,0,0l0,0.2c0,0,0,0.1,0,0.1
		c0,0,0.1,0,0.1,0l0.2,0c0,0,0,0,0,0c0,0,0,0.1,0,0.1c0,0,0,0.1-0.1,0.1c0,0-0.1,0.1-0.1,0.1c0,0,0,0,0,0c0,0,0,0,0,0
		c0,0-0.1,0.1-0.1,0.1c0,0-0.1,0-0.1,0c0,0-0.1,0-0.1,0c0,0-0.1,0-0.1-0.1c0,0,0,0,0,0l0,0c0,0,0,0,0,0c0,0.1,0,0.1,0,0.2
		c0,0.1,0,0.1,0,0.2c0,0,0,0.1-0.1,0.1c0,0-0.1,0.1-0.1,0.1c0,0,0,0,0,0c0,0,0,0,0,0c0,0-0.1,0.1-0.1,0.1c0,0-0.1,0-0.1,0
		c0,0-0.1,0-0.1,0c0,0-0.1-0.1-0.1-0.1l-0.6-0.5c0,0,0,0,0,0l0,0c0,0,0,0,0,0c0,0.1,0.1,0.2,0.1,0.3l0,0c-0.1,0.2-0.1,0.5-0.1,0.6
		c0,0.2,0.1,0.2,0.1,0.2c0,0,0,0,0.1,0c0,0,0.1,0,0.1,0c0.1,0,0.1-0.1,0.2-0.1c0,0,0.1-0.1,0.1-0.1c0,0,0-0.1,0-0.1l0-0.1
		c0.1,0,0.1,0.1,0.2,0.1c0.1,0,0.1,0,0.1,0.1c0,0,0.1,0,0.1,0c0,0,0.1,0,0.1-0.1c0,0,0,0,0,0c0,0,0,0,0,0c0.1-0.1,0.1-0.2,0.2-0.3
		c0-0.1,0-0.2,0-0.3C79.2,37.4,79.3,37.4,79.3,37.4 M78.2,37.8c0,0,0,0.1-0.1,0.1C78,38,78,38,77.9,38.1c0-0.1,0-0.3,0.1-0.4
		L78.2,37.8z"/>
	<path class="st3" d="M80.3,37C80.3,37.1,80.3,37.1,80.3,37l-0.2,0.7c0,0.1,0,0.1,0,0.2c0,0,0,0.1,0.1,0.1c0,0,0,0,0,0c0,0,0,0,0,0
		c0,0,0,0,0,0l0.2-0.7C80.5,37.2,80.4,37.1,80.3,37C80.4,37,80.4,37,80.3,37"/>
	<path class="st3" d="M78.7,36.1C78.7,36.1,78.7,36.1,78.7,36.1C78.7,36.1,78.7,36.1,78.7,36.1L79,36c0,0,0,0,0,0l0-0.3c0,0,0,0,0,0
		c0,0,0,0,0,0l-0.3,0.1c0,0,0,0,0,0L78.7,36.1C78.7,36.1,78.7,36.1,78.7,36.1"/>
	<path class="st3" d="M82.1,34.2C82.1,34.1,82,34.1,82.1,34.2C82,34.1,82,34.1,82,34c0,0-0.1,0-0.1,0c0,0-0.1,0-0.2,0.1
		c0,0-0.1,0-0.1,0.1c0,0-0.1,0-0.1,0.1c0,0-0.1,0-0.1,0c0,0-0.1,0-0.1,0c0,0-0.1,0-0.1,0c0,0-0.1,0-0.2-0.1
		c-0.2-0.1-0.3-0.2-0.5-0.3c-0.1-0.1-0.2-0.1-0.3-0.2c-0.1-0.1-0.1-0.1-0.1-0.2c0,0,0,0,0,0l-0.3,0c0,0,0,0,0,0c0,0,0,0,0,0
		c0,0.1,0.1,0.2,0.1,0.3c0,0,0.3,0.2,0.7,0.4c0.4,0.2,0.6,0.3,0.7,0.4c0,0,0,0,0,0.1c0,0,0,0.1,0,0.1c0,0,0,0.1-0.1,0.1
		c0,0.1-0.1,0.1-0.1,0.2c0,0,0,0,0,0l0,0c0,0,0,0,0,0c0,0.1-0.1,0.1-0.1,0.1c0,0-0.1,0-0.1,0c0,0-0.1,0-0.1,0
		c-0.1,0-0.1-0.1-0.2-0.1l-0.8-0.5c0,0,0,0,0,0l0,0c0,0,0,0,0,0c0,0.1,0.1,0.2,0.1,0.3c0,0,0.1,0.1,0.3,0.2c0.1,0,0.1,0.1,0.2,0.1
		c0,0,0.1,0.1,0.1,0.1c0.1,0.1,0.1,0.1,0.1,0.2c0,0.1-0.1,0.2-0.2,0.3c-0.2,0.2-0.3,0.2-0.4,0.2c0,0,0,0,0,0l0,0c0,0,0,0,0,0
		c0.1,0.1,0.1,0.2,0.1,0.3c0,0,0.1,0,0.1,0c0.1,0,0.2-0.1,0.3-0.2c0.1-0.2,0.2-0.3,0.2-0.4c0-0.1,0-0.2,0-0.4c0.1,0,0.1,0,0.2,0.1
		c0.1,0,0.1,0,0.2,0c0.1,0,0.1,0,0.1,0c0,0,0.1-0.1,0.1-0.1c0,0,0,0,0-0.1c0,0,0,0,0,0c0.1-0.1,0.1-0.2,0.2-0.3
		c0-0.1,0.1-0.1,0.1-0.2c0-0.1,0-0.1,0-0.1c0,0,0-0.1,0-0.1c0.1,0,0.1-0.1,0.2-0.1c0.1,0,0.1-0.1,0.2-0.1c0,0,0,0,0,0
		C82.1,34.3,82.1,34.3,82.1,34.2C82.1,34.2,82.1,34.2,82.1,34.2"/>
	<path class="st3" d="M82.1,33.5c-0.1,0-0.1-0.1-0.3-0.2L81.3,33c-0.1-0.1-0.3-0.1-0.4-0.3c0,0,0,0,0,0c0,0,0,0,0,0
		c0.1,0.2,0.2,0.3,0.3,0.4c0,0,0.1,0.1,0.2,0.1l0.7,0.4c0.1,0.1,0.2,0.1,0.3,0.2c0,0,0.1,0.1,0.2,0.1c0,0,0,0,0,0c0,0,0,0,0,0l0,0
		c0,0,0,0,0,0C82.3,33.7,82.2,33.6,82.1,33.5"/>
	<path class="st3" d="M81.3,31.2c0.1,0,0.1,0,0.2,0c0,0.2,0,0.4,0,0.5c0,0,0,0,0,0c0,0,0,0,0,0c0,0,0,0,0,0c0,0,0.1-0.1,0.1-0.1
		c0.1-0.1,0.1-0.3,0-0.5l0.2-0.1c0,0,0,0,0,0c0,0,0,0,0,0l-0.2-0.1c0,0,0,0,0,0c0,0-0.1,0-0.1,0c-0.1-0.1-0.1-0.1-0.2-0.2
		c-0.1-0.1-0.2,0-0.3,0c0,0.1,0,0.1,0,0.2C81.2,31.1,81.3,31.2,81.3,31.2 M81.3,31C81.3,31,81.3,31,81.3,31C81.3,31,81.4,31,81.3,31
		C81.4,31,81.4,31,81.3,31c0.1-0.1,0.1-0.1,0.1,0c0,0,0,0,0,0C81.4,31.1,81.3,31,81.3,31C81.3,31,81.3,31,81.3,31"/>
	<path class="st3" d="M81.9,31.7l0.1,0.2c0,0,0,0,0,0c0,0,0,0,0,0c0,0,0,0,0,0l0.2-0.1c0,0,0,0,0,0l-0.1-0.2l0.2-0.1c0,0,0,0,0,0
		l-0.1-0.2c0,0,0,0,0,0c0,0,0,0,0,0L82,31.3c0,0,0,0,0,0l0.1,0.2L81.9,31.7C81.9,31.6,81.9,31.7,81.9,31.7"/>
	<path class="st3" d="M82.8,30.9C82.8,30.9,82.8,30.9,82.8,30.9C82.8,30.9,82.8,30.9,82.8,30.9C82.8,30.9,82.8,30.9,82.8,30.9
		l0.1-0.8c0-0.1,0-0.1-0.1-0.2c0,0,0,0,0,0c0,0,0,0,0,0l0,0.7C82.7,30.7,82.7,30.7,82.8,30.9C82.7,30.8,82.7,30.8,82.8,30.9"/>
	<path class="st3" d="M85.5,29.5C85.5,29.5,85.4,29.5,85.5,29.5C85.4,29.5,85.4,29.5,85.5,29.5l0,0.7c0,0.1,0,0.1,0,0.1
		c0,0,0,0.1,0.1,0.1c0,0,0,0,0,0c0,0,0,0,0,0c0,0,0,0,0,0l0-0.8C85.6,29.6,85.5,29.6,85.5,29.5"/>
	<path class="st3" d="M84.8,29.2C84.7,29.1,84.7,29.1,84.8,29.2c-0.2-0.1-0.3-0.1-0.4-0.1c-0.2,0-0.3,0-0.3,0.1c0,0,0,0.1,0,0.1
		c0,0,0,0.1,0.1,0.2l0.2,0.3c0,0.1,0.1,0.1,0.1,0.2c0,0,0,0.1,0,0.1c0,0,0,0.1,0,0.1c0,0,0,0.1-0.1,0.1c0,0,0,0,0,0c0,0,0,0,0,0
		c-0.1,0.1-0.1,0.2-0.2,0.2c0,0-0.1,0.1-0.2,0.1c0-0.2,0-0.3-0.1-0.3c-0.1,0-0.2,0-0.2,0c-0.1,0.1-0.2,0.1-0.2,0.3
		c-0.1,0.3-0.1,0.5,0,0.6c0,0,0,0,0,0l0.3-0.2c0,0.1,0,0.1,0,0.2c0,0.1,0,0.2-0.1,0.2c0,0,0,0,0,0c0,0,0,0,0,0
		c0,0.1-0.1,0.1-0.1,0.1c0,0,0,0-0.1,0c0,0-0.1,0-0.1,0c0,0-0.1,0-0.2-0.1l-0.7-0.3c0,0,0,0,0,0l0,0c0,0,0,0,0,0
		c0.1,0.1,0.1,0.2,0.2,0.2l0,0c0,0.3,0,0.5,0.1,0.6c0.1,0.2,0.1,0.2,0.1,0.2c0,0,0,0,0,0c0,0,0.1,0,0.1-0.1c0.1,0,0.1-0.1,0.2-0.2
		c0,0,0-0.1,0-0.1c0,0,0-0.1,0-0.1l0-0.1c0.1,0,0.1,0,0.2,0.1c0.1,0,0.1,0,0.2,0c0,0,0.1,0,0.1-0.1c0,0,0.1-0.1,0.1-0.1
		c0,0,0,0,0-0.1c0,0,0,0,0,0c0-0.1,0.1-0.1,0.1-0.2c0-0.1,0-0.1,0-0.2c0-0.1,0-0.1,0-0.2c0-0.1,0-0.1,0-0.2c0.1,0,0.2-0.1,0.3-0.2
		c0.1-0.1,0.2-0.2,0.2-0.3c0,0,0,0,0-0.1c0,0,0,0,0,0c0,0,0-0.1,0.1-0.1c0,0,0-0.1,0-0.1c0,0,0-0.1,0-0.1c0,0,0-0.1,0-0.1
		c0,0,0-0.1,0-0.1c0,0,0-0.1-0.1-0.1c0.1-0.1,0.2-0.1,0.2-0.2c0.1-0.1,0.1-0.1,0.1-0.2c0,0,0-0.1,0-0.1
		C84.9,29.3,84.9,29.3,84.8,29.2C84.8,29.2,84.8,29.2,84.8,29.2 M84.5,29.3C84.5,29.3,84.5,29.4,84.5,29.3c-0.1,0.1-0.1,0.1-0.1,0.1
		c0,0,0,0-0.1,0c0,0,0,0,0,0c0,0,0,0,0-0.1c0,0,0,0,0,0c0,0,0,0,0,0c0,0,0,0,0.1,0C84.4,29.3,84.4,29.3,84.5,29.3
		C84.5,29.3,84.5,29.3,84.5,29.3 M83.1,31.8c0,0,0,0.1,0,0.1c-0.1,0.1-0.1,0.2-0.2,0.2c-0.1-0.1-0.1-0.3,0-0.4L83.1,31.8z"/>
	<path class="st3" d="M84.3,27.9C84.3,27.9,84.3,27.9,84.3,27.9C84.4,27.9,84.4,27.9,84.3,27.9C84.4,27.9,84.4,27.9,84.3,27.9l0-0.8
		c0-0.1-0.1-0.1-0.1-0.2c0,0,0,0,0,0c0,0,0,0,0,0l0.1,0.7c0,0.1,0,0.1,0,0.1C84.3,27.8,84.3,27.9,84.3,27.9"/>
	<path class="st3" d="M86.3,27.1C86.2,27.1,86.2,27.1,86.3,27.1L86,27.2c0,0,0,0,0,0c0,0,0,0,0,0l0.2,0.2c0,0,0,0,0,0h0c0,0,0,0,0,0
		l0.2-0.2c0,0,0,0,0,0L86.3,27.1C86.3,27.1,86.3,27.1,86.3,27.1"/>
	<path class="st3" d="M85.8,26C85.8,26,85.8,26,85.8,26C85.7,26,85.7,26,85.8,26c-0.1,0.1-0.1,0.2-0.1,0.3c0,0.1-0.1,0.2-0.1,0.2
		c0,0.1-0.2,0.2-0.3,0.5c-0.1-0.1-0.1-0.1-0.3-0.2c0,0-0.1,0-0.1,0c-0.1,0-0.1,0-0.2-0.1c-0.1,0-0.2,0-0.2-0.1c-0.1,0-0.1,0-0.1,0
		c-0.1,0-0.1-0.1-0.2-0.2c0,0,0,0,0,0l-0.3,0.1c0,0,0,0,0,0c0,0,0,0,0,0c0.1,0.1,0.1,0.2,0.2,0.2c0,0,0,0,0.1,0c0.1,0,0.2,0,0.3,0
		c0.1,0,0.2,0,0.3,0.1c0.1,0,0.2,0,0.2,0.1C85,26.9,85,27,85,27c0,0,0,0.1-0.1,0.2c-0.1,0.2-0.1,0.3-0.1,0.3c0,0.1,0.1,0.2,0.2,0.2
		c0,0,0,0,0,0c0,0,0,0,0,0c0.1-0.3,0.2-0.6,0.4-0.8c0,0,0,0.1,0,0.1c0,0.1,0,0.2,0,0.3c0,0.1,0,0.2,0,0.3c0,0.1-0.1,0.2-0.1,0.3
		c0,0,0,0,0,0c0,0,0,0,0,0c0,0.1-0.1,0.1-0.1,0.2c0,0-0.1,0.1-0.1,0.1c0,0-0.1,0-0.1,0c0,0-0.1,0-0.1,0L83.5,28c0,0,0,0,0,0
		c0,0,0,0,0,0c0.1,0.2,0.1,0.2,0.2,0.3c0,0,0.2,0.1,0.5,0.2c0.2,0.1,0.3,0.1,0.5,0.1c0.1,0,0.2,0.1,0.3,0.1c0.1,0,0.1,0,0.2,0
		c0,0,0,0,0,0c0.1,0,0.1,0,0.2,0c0,0,0.1-0.1,0.1-0.1c0-0.1,0.1-0.1,0.1-0.2c0,0,0,0,0-0.1v0l0,0c0,0,0,0,0,0c0,0,0,0,0,0
		c0,0,0,0,0,0c0-0.1,0.1-0.2,0.1-0.3c0-0.1,0-0.2,0-0.3c0-0.1,0-0.3,0-0.3c0-0.1,0-0.1,0-0.1c0-0.2,0-0.4,0.1-0.6c0,0,0-0.1,0-0.1
		c0,0,0-0.1,0-0.1c0,0,0-0.1,0.1-0.1l0.1-0.2c0,0,0,0,0,0L85.8,26z"/>
	<path class="st3" d="M86.5,25.7c-0.2-0.1-0.3-0.2-0.4-0.3c-0.1,0-0.2,0-0.3-0.1l-0.7-0.1c-0.1,0-0.3-0.1-0.5-0.1c0,0,0,0,0,0
		c0,0,0,0,0,0c0.1,0.1,0.3,0.2,0.4,0.3c0,0,0.1,0,0.2,0l0.8,0.1c0.1,0,0.2,0,0.3,0.1C86.3,25.6,86.3,25.7,86.5,25.7
		C86.5,25.7,86.5,25.7,86.5,25.7C86.5,25.7,86.5,25.7,86.5,25.7L86.5,25.7C86.5,25.7,86.5,25.7,86.5,25.7"/>
	<path class="st4" d="M64.3,34.7C64.3,34.7,64.3,34.7,64.3,34.7C64.3,34.7,64.3,34.7,64.3,34.7l-0.1,0.1l-0.1-0.1c0,0,0,0,0,0
		c0,0,0,0,0,0l-0.1,0.2c0,0,0,0,0,0l0.2,0.1c0,0,0,0,0,0c0,0,0,0,0,0c0,0,0,0,0,0l0.1-0.1l0.1,0.1c0,0,0,0,0,0c0,0,0,0,0,0l0.1-0.2
		c0,0,0,0,0,0L64.3,34.7z"/>
	<path class="st4" d="M65.8,33.8C65.8,33.8,65.8,33.8,65.8,33.8L65.7,34c0,0,0,0,0,0c0.1,0.1,0.1,0.1,0.1,0.1c0,0,0,0,0,0
		c-0.1,0-0.2-0.1-0.2-0.2c0,0,0,0,0,0h0c0,0,0,0,0,0c-0.1,0.2-0.2,0.4-0.4,0.4c0,0-0.1,0-0.1,0c0,0,0,0,0-0.1c0,0,0-0.1,0-0.1
		c0,0,0,0,0,0l0,0c0,0,0,0,0,0c0,0-0.1,0.1-0.1,0.1c0,0-0.1,0.1-0.1,0.1c0,0-0.1,0-0.1,0c0,0-0.1,0-0.1,0c0,0-0.1,0-0.1,0
		c0,0,0,0-0.1,0c0,0,0,0,0-0.1c0,0,0-0.1,0-0.1c0,0,0,0,0,0l0,0c0,0,0,0,0,0c0,0.1-0.1,0.1-0.1,0.1c0,0-0.1,0.1-0.1,0.1
		c0,0-0.1,0-0.1,0c0,0-0.1,0-0.1,0c0,0-0.1,0-0.1,0c0,0,0,0-0.1,0c0,0,0,0-0.1-0.1c0,0,0-0.1,0-0.1c0,0,0,0,0,0h0c0,0,0,0,0,0
		c0,0.1-0.1,0.2-0.2,0.2c0,0-0.1,0-0.1-0.2c0,0,0,0,0,0l0,0c0,0,0,0,0,0c-0.1,0.1-0.1,0.2-0.2,0.2c0,0-0.1,0.1-0.2,0.1
		c0,0,0,0-0.1-0.1c0,0,0,0,0,0s0,0,0,0l-0.1,0.2c0,0,0,0,0,0c0.1,0.1,0.1,0.2,0.1,0.3c0,0.1,0,0.2,0,0.3c0,0.1-0.1,0.1-0.2,0.2
		c-0.1,0-0.2,0.1-0.3,0.1c-0.1,0-0.1,0-0.2,0c-0.1,0-0.1,0-0.1-0.1c0,0-0.1-0.1-0.1-0.1c0,0,0-0.1,0-0.1c0-0.1,0-0.2,0.1-0.4
		c0,0,0,0,0,0c0,0,0,0,0,0l0,0c0,0,0,0,0,0c-0.1,0.2-0.2,0.4-0.2,0.5c0,0.1,0,0.2,0.1,0.3c0.1,0.1,0.2,0.1,0.3,0.1
		c0.3,0,0.6-0.1,0.7-0.3c0.1-0.2,0.1-0.4,0.1-0.6c0.1,0,0.2-0.1,0.3-0.2c0,0.1,0.1,0.1,0.2,0.1c0.1,0,0.2-0.1,0.3-0.2c0,0,0,0,0,0
		c0,0,0,0.1,0.1,0.1c0,0,0,0.1,0.1,0.1c0,0,0.1,0,0.1,0c0,0,0,0,0,0h0c0.1,0,0.1,0,0.1,0c0,0,0,0,0,0c0,0,0.1,0,0.1,0
		c0.1,0,0.1-0.1,0.1-0.1c0,0,0,0.1,0.1,0.1c0,0,0.1,0.1,0.2,0.1h0c0,0,0.1,0,0.1,0c0,0,0.1,0,0.1,0c0,0,0.1,0,0.1-0.1
		c0,0,0,0,0.1-0.1c0,0,0,0,0,0.1c0,0,0,0,0,0.1c0,0,0,0,0.1,0c0,0,0.1,0,0.1,0c0.1,0,0.3-0.1,0.4-0.2c0.1,0.1,0.1,0.1,0.2,0.1
		c0.1,0,0.1,0,0.2-0.1c0-0.1,0.1-0.2,0.1-0.3C65.9,33.9,65.8,33.8,65.8,33.8C65.8,33.8,65.8,33.8,65.8,33.8"/>
	<path class="st4" d="M66.6,32.6C66.6,32.6,66.6,32.6,66.6,32.6C66.6,32.5,66.6,32.5,66.6,32.6C66.6,32.5,66.6,32.5,66.6,32.6
		c-0.1-0.1-0.1-0.1-0.1-0.1c-0.1,0-0.1,0-0.2-0.1c0,0,0.1,0,0.1,0c0,0,0.1,0,0.1,0.1c0,0,0,0,0,0c0,0,0,0,0,0c0-0.1,0-0.1,0-0.1
		c0-0.1-0.1-0.1-0.1-0.1c-0.1,0-0.2,0.1-0.3,0.2c0,0,0,0.1,0,0.1c0,0.1,0,0.1,0.1,0.1c0,0-0.1,0-0.1,0c0,0,0,0.1-0.1,0.1
		c0,0,0,0,0,0c0,0,0,0,0,0c0,0,0,0,0,0L66.6,32.6C66.6,32.6,66.6,32.6,66.6,32.6"/>
	<path class="st4" d="M67,33.7C67,33.8,67,33.8,67,33.7C67,33.8,67,33.8,67,33.7C67,33.8,67,33.7,67,33.7l0.1-0.1l0.1,0.1
		c0,0,0,0,0,0c0,0,0,0,0,0l0.1-0.2c0,0,0,0,0,0l-0.2-0.1c0,0,0,0,0,0c0,0,0,0,0,0l-0.1,0.1l-0.1-0.1c0,0,0,0,0,0c0,0,0,0,0,0
		l-0.1,0.2c0,0,0,0,0,0L67,33.7z"/>
	<path class="st4" d="M67.7,33.4c0-0.1,0-0.2,0-0.3c0-0.1,0-0.1,0-0.1c0-0.1,0-0.1,0.1-0.2c0,0,0,0,0,0l-0.1-0.2c0,0,0,0,0,0
		c0,0,0,0,0,0c-0.1,0-0.1,0.1-0.1,0.3c0,0.1,0,0.3,0.1,0.6c0,0.2,0,0.3,0.1,0.4c0,0.1,0,0.2,0,0.2c0,0,0,0.1-0.1,0.1c0,0,0,0-0.1,0
		c0,0,0,0-0.1,0c0,0,0,0-0.1,0c0,0,0,0-0.1,0h0c0,0-0.1,0-0.1,0c0,0,0,0-0.1-0.1c0,0,0,0,0-0.1c0,0,0-0.1,0-0.1c0,0,0,0,0,0l0,0
		c0,0,0,0,0,0c0,0.1-0.1,0.1-0.1,0.1c0,0-0.1,0.1-0.1,0.1c0,0-0.1,0-0.1,0c0,0-0.1,0-0.1,0c0,0-0.1,0-0.1,0c0,0-0.1,0-0.1,0
		c0,0,0,0-0.1-0.1c0,0,0-0.1,0-0.1l-0.1-1.3c0,0,0,0,0,0c0,0,0,0,0,0c-0.1,0.1-0.1,0.2-0.1,0.2c0,0,0,0.2,0,0.5c0,0.2,0,0.3,0,0.4
		c0,0.1,0,0.2,0,0.3c0,0.1,0,0.1,0,0.2c0,0,0,0.1,0.1,0.1c0,0,0.1,0,0.1,0.1c0,0,0.1,0,0.1,0c0,0,0,0,0.1,0c0,0,0,0,0,0
		c0,0,0.1,0,0.1,0c0.1,0,0.1-0.1,0.1-0.1c0,0,0,0.1,0.1,0.1c0,0,0.2,0.1,0.2,0.1c0,0,0,0,0,0c0,0,0,0,0,0c0.1,0,0.1,0,0.2,0
		c0.1,0,0.1,0,0.2-0.1c0,0,0.1-0.1,0.1-0.2c0-0.1,0-0.2,0-0.3c0,0,0-0.1,0-0.2C67.8,33.7,67.8,33.6,67.7,33.4"/>
	<path class="st4" d="M68.2,33.2c0-0.1,0-0.3,0-0.4c0,0,0,0,0,0c0,0,0,0,0,0C68,32.9,68,33,68,33.1c0,0,0,0.1,0,0.2l0.1,0.7
		c0,0.1,0,0.2,0,0.3c0,0,0,0.1,0,0.2c0,0,0,0,0,0l0,0c0,0,0,0,0,0c0,0,0,0,0,0c0,0,0,0,0,0c0.1-0.2,0.1-0.3,0.1-0.4
		c0-0.1,0-0.1,0-0.3L68.2,33.2z"/>
	<polygon class="st4" points="54.3,34 54.3,34.2 60.8,34.2 60.8,34 	"/>
	<polygon class="st1" points="79,20.7 42.8,19.8 42.8,19.6 79,20.5 	"/>
	<path class="st5" d="M48.7,20.9c0.1,0,0.1,0,0.3,0c0.2,0,0.2,0,0.3-0.1c0.1-0.1,0.3-0.2,0.4-0.4c0.1-0.2,0.2-0.4,0.2-0.5
		c0-0.2-0.1-0.4-0.3-0.5c-0.1-0.1-0.3-0.1-0.4-0.1c-0.1,0-0.2,0-0.2,0c-0.1,0-0.1,0.1-0.1,0.1c-0.1,0.2-0.2,0.3-0.2,0.4
		c-0.1,0.1-0.1,0.3,0,0.4c-0.1,0.1-0.2,0.2-0.2,0.4C48.4,20.7,48.5,20.9,48.7,20.9"/>
	<path class="st5" d="M56.6,23.1c0,0.1,0.1,0.1,0.2,0.1c0.1,0,0.1,0,0.2-0.1l0.4-0.5c0.1-0.1,0.1-0.3,0-0.4L57,21.7
		c0-0.1-0.1-0.1-0.2-0.1c-0.1,0-0.1,0-0.2,0.1l-0.4,0.5c-0.1,0.1-0.1,0.3,0,0.4L56.6,23.1z"/>
	<path class="st5" d="M61.2,23.9c-0.1,0-0.1,0-0.1,0c0,0-0.1,0.1-0.3,0.2c-0.2,0.1-0.4,0.2-0.5,0.3c0,0,0,0.1-0.1,0.1
		c0,0,0,0.1-0.1,0.1c-0.1,0.1-0.1,0.2-0.1,0.2c0,0.1,0,0.2,0.1,0.3c0,0.1,0.1,0.1,0.2,0.1c0,0,0.1,0,0.1,0c0.1,0,0.1,0,0.1,0
		c0.1-0.1,0.2-0.1,0.3-0.2c0.1-0.1,0.2-0.1,0.4-0.2c0,0,0,0,0.1,0l0.1-0.1c0.1-0.1,0.1-0.2,0.2-0.3c0,0,0-0.1,0-0.1
		C61.5,24.1,61.4,23.9,61.2,23.9"/>
	<path class="st5" d="M63.9,20.2c0,0-0.1-0.1-0.1-0.2c0-0.2-0.1-0.5-0.3-0.5c0,0-0.1,0-0.1,0c0,0-0.1,0-0.1,0.1
		c-0.1,0.1-0.2,0.3-0.2,0.6c0,0,0,0.1,0,0.1c0,0,0-0.1,0-0.1c-0.2-0.5-0.2-0.6-0.4-0.6c-0.1,0-0.1,0-0.2,0.1c0,0-0.1,0.1-0.1,0.1
		c-0.1,0.2-0.1,0.4-0.1,0.6c0,0.2,0,0.5,0.1,0.8c0.1,0.4,0.1,0.6,0.1,0.7c0,0.1,0,0.1,0,0.1c0,0,0,0,0,0c0,0.1-0.2,0.2-0.5,0.2h0
		c0,0,0,0,0,0c0,0,0,0,0,0c-0.3-0.1-0.6-0.6-0.8-1.5c0-0.1,0-0.2-0.1-0.2c0.1-0.1,0.2-0.2,0.2-0.4c0.1-0.2,0.1-0.4,0-0.7
		c0,0,0,0,0,0c-0.1-0.3-0.2-0.3-0.3-0.3c-0.1,0-0.2,0-0.3,0.2c0,0,0,0,0,0c0,0,0,0,0,0c-0.1,0-0.1,0-0.1,0c0,0-0.1,0-0.1-0.1
		c0,0,0,0-0.1,0c-0.1,0-0.2,0-0.2,0.1c0,0,0,0.1-0.1,0.1c-0.1,0.1-0.1,0.3-0.1,0.4c0,0.2,0,0.3,0,0.5c0,0,0,0.1,0,0.1
		c0.1,0.2,0.3,0.3,0.4,0.3c0,0,0.1,0,0.1,0c0,0,0,0,0.1,0c0,0,0,0.1,0,0.1c0,0.1,0,0.3,0,0.5c0,0,0,0,0,0.1c0.1,0.4,0.2,0.7,0.2,0.8
		c0,0.1-0.1,0.2-0.2,0.3c-0.1,0.1-0.1,0.1-0.2,0.1c-0.1,0-0.2-0.2-0.2-0.4c0-0.1,0-0.2-0.1-0.5c-0.1-0.5-0.1-0.5-0.2-0.6
		c0,0-0.1,0-0.1,0c0-0.1,0-0.3,0-0.5c0-0.1,0-0.2-0.1-0.3c0-0.1,0-0.1-0.1-0.2c-0.1-0.2-0.2-0.3-0.3-0.3c-0.1,0-0.1,0-0.2,0.1
		c-0.1,0.1-0.1,0.1-0.1,0.2c0,0.1,0,0.2-0.1,0.3c0,0.1,0,0.3,0.1,0.4c0,0,0,0,0,0c0,0,0,0,0,0c0,0.1-0.1,0.1-0.3,0.1
		c-0.1,0-0.1,0-0.2,0c0,0-0.1,0-0.1,0c-0.1,0-0.1,0-0.1-0.1c0,0,0-0.1-0.1-0.1c0-0.1-0.1-0.3-0.2-0.3c0,0,0,0-0.1,0
		c-0.1,0-0.3,0-0.3,0.5c0,0.1,0,0.3,0,0.4c0,0.1,0.1,0.3,0.1,0.4c0,0.1,0,0.1,0,0.2c0,0.1,0.1,0.3,0.1,0.4c0,0.3,0,0.5-0.1,0.7
		c-0.3,0.5-0.9,0.6-1.4,0.7c-0.2,0-0.3,0-0.5,0c-0.6,0-1.1-0.2-1.7-0.5c-0.1,0-0.1-0.1-0.2-0.1c0.1-0.1,0.3-0.2,0.4-0.3
		c0.1-0.1,0.2-0.4,0.3-0.7c0,0,0,0,0,0c0-0.1,0-0.2,0-0.3c0-0.1,0-0.4,0-0.8c0,0,0-0.4-0.1-0.5c0,0,0,0,0,0c0,0,0-0.1,0-0.1
		c0,0.1,0,0.1,0,0.1c0.1,0.8,0.1,1.5,0.1,2.3c0,0.1,0,0.2,0,0.3c0,0.1,0,0.1,0,0.2c0,0.1,0.1,0.2,0.2,0.2c0,0,0.1,0,0.1,0
		c0.2-0.1,0.3-0.4,0.3-0.8c0-0.3,0-0.6,0-0.8c0-0.2,0-0.4,0-0.7c0-0.2,0-0.3,0-0.5c0.1-0.1,0.1-0.1,0.1-0.2c0-0.1,0-0.2-0.1-0.3
		c0,0-0.1-0.1-0.1-0.2c0-0.2-0.1-0.5-0.3-0.5c0,0-0.1,0-0.1,0c0,0-0.1,0-0.1,0.1c-0.1,0.1-0.2,0.3-0.2,0.6c0,0,0,0.1,0,0.1
		c0,0,0-0.1,0-0.1c-0.2-0.5-0.2-0.6-0.4-0.6c-0.1,0-0.2,0-0.2,0.1c0,0-0.1,0.1-0.1,0.1c-0.1,0.2-0.1,0.4-0.1,0.6
		c0,0.2,0,0.5,0.1,0.8c0.1,0.4,0.1,0.6,0.1,0.7c0,0.1,0,0.1,0,0.1c0,0,0,0,0,0c0,0.1-0.2,0.2-0.4,0.2c0,0,0,0,0,0c0,0-0.1,0-0.1,0
		c-0.1,0-0.2,0-0.2,0c0-0.1,0-0.2,0-0.3c0-0.1-0.1-0.2-0.2-0.2c0,0,0,0,0,0l0.4-0.5c0.1-0.1,0.1-0.3,0-0.4l-0.2-0.2
		c0.1-0.1,0.2-0.2,0.2-0.4l0-0.1c0-0.2,0-0.4,0-0.5l0,0c0,0,0,0,0,0c0-0.1,0-0.2-0.1-0.3c0,0,0,0,0,0c0.2-0.1,0.3-0.2,0.4-0.3
		c0.2-0.2,0.3-0.3,0.3-0.5c0-0.1-0.1-0.3-0.3-0.3c0,0-0.1,0-0.1,0c-0.1,0-0.1,0-0.2,0.1c-1.7,0.9-2,1.1-2.1,1.2
		c-0.1,0-0.1,0.1-0.2,0.2c-0.1,0.1-0.2,0.2-0.1,0.4c0,0.1,0.1,0.3,0.3,0.3c0,0,0.1,0,0.1,0c0,0,0.1,0,0.2-0.1
		c0.2-0.1,0.4-0.2,0.6-0.4c0,0.1,0,0.3,0,0.4c0,0.1,0,0.2,0.2,0.3c0,0,0,0,0.1,0l-0.1,0.1c-0.1,0.1-0.1,0.3,0,0.4l0.4,0.5
		c0,0,0.1,0.1,0.1,0.1c-0.1,0.1-0.1,0.2-0.2,0.3c0,0.1-0.1,0.1-0.2,0.1c0-0.1,0-0.1,0-0.2c0-0.4-0.3-0.7-0.7-0.7
		c-0.3,0-0.6,0.1-0.9,0.6c0,0,0,0,0,0c0-0.1-0.1-0.2-0.2-0.2c0,0-0.1,0-0.1,0c-0.2,0-0.3,0.1-0.3,0.2c-0.1,0.1-0.2,0.2-0.2,0.2
		c-0.1,0-0.1,0-0.2,0c0,0,0,0-0.1,0c0,0,0,0,0,0c-0.1,0-0.2,0-0.2,0c0-0.1,0-0.2,0-0.3c0-0.1-0.1-0.2-0.2-0.2
		c-0.2,0-0.2,0.1-0.4,0.4c-0.1,0.1-0.2,0.1-0.4,0.1c0,0,0,0,0,0l-0.1,0c0,0,0,0,0,0c0,0-0.1,0-0.1,0c0-0.2,0.1-0.3,0-0.4
		c0,0,0,0,0-0.1c0-0.1-0.1-0.2-0.3-0.2c0,0-0.1,0-0.1,0l-0.1,0c0,0-0.1,0-0.4-0.2c-0.3-0.1-0.5-0.2-0.6-0.2c-0.3,0-0.5,0.1-0.6,0.4
		c0,0.1,0,0.1-0.1,0.1C46,21.2,46,20.9,46,20.7c0-0.3,0-0.4,0-0.5l0.2-0.2c0.1-0.1,0.1-0.3,0-0.4l-0.4-0.5c0-0.1-0.1-0.1-0.2-0.1h0
		c0,0,0,0-0.1,0c0.1,0,0.1-0.1,0.2-0.1c0.1-0.1,0.3-0.2,0.4-0.3c0.1-0.1,0.2-0.2,0.2-0.3c0,0,0,0,0,0c0.1-0.1,0.1-0.3,0.1-0.4
		c0-0.1-0.1-0.2-0.2-0.3c-0.1-0.1-0.2-0.1-0.3-0.1c-0.1,0-0.1,0-0.2,0c-0.1,0-0.3,0.1-0.4,0.2C45,17.9,45,18.1,45,18.3
		c0,0-0.1,0-0.1,0c-0.4,0.1-0.9,0.3-1.2,0.7c-0.2,0.3-0.3,0.6-0.3,1c0,0.2,0.1,0.3,0.3,0.3c0,0,0,0,0,0c0.1,0,0.2-0.1,0.2-0.2
		c0,0,0,0,0-0.1c0,0,0,0,0,0c0-0.1,0.1-0.1,0.1-0.2c0,0,0,0,0,0c0,0.1,0,0.1,0.1,0.2l0.4,0.5c0,0.1,0.1,0.1,0.2,0.1h0
		c0.1,0,0.1,0,0.2-0.1l0.1-0.2l0.2,0.2c0,0,0,0,0,0c0,0.1,0,0.1,0,0.2c-0.3,0.2-0.4,0.3-0.5,0.3c-0.2,0.2-0.4,0.4-0.5,0.7
		c-0.1,0.4-0.1,0.4-0.1,0.5c0,0.2,0.1,0.6,0.7,0.6c0.1,0,0.2,0,0.4,0c0.1,0,0.2,0,0.3-0.1c0,0.1,0.1,0.1,0.1,0.2
		c0.1,0.2,0.3,0.3,0.5,0.3h0c0,0,0,0,0.1,0c0.2,0,0.5-0.1,0.8-0.3c0.1-0.1,0.2-0.1,0.3-0.1c0,0.2,0.1,0.3,0.2,0.4
		c0.1,0.1,0.3,0.1,0.6,0.1c0,0,0.1,0,0.1,0c0,0,0.1,0,0.1,0c0,0,0,0,0,0c0,0,0.1,0,0.1,0l-0.2,0.3c-0.1,0.1-0.1,0.3,0,0.4
		c0,0,0,0,0,0l0.3,0.3c0,0,0,0,0,0c0,0,0.1,0,0.1,0c0.1,0,0.2-0.1,0.2-0.1l0,0l0.1,0.1c0,0.1,0.1,0.1,0.2,0.1c0.1,0,0.2-0.1,0.2-0.1
		l0.2-0.4c0.1-0.1,0.1-0.2,0.1-0.3c0-0.1-0.1-0.1-0.1-0.2l-0.1-0.1h0c0,0,0,0,0,0c0.1,0,0.3,0,0.5-0.3c0,0,0,0,0,0
		c0,0.1,0,0.2,0.1,0.3c0,0.1,0.1,0.1,0.2,0.1c0,0,0.1,0,0.1,0c0.1,0,0.1-0.1,0.1-0.1c0,0,0.1,0,0.1,0c0.1,0,0.2,0,0.4,0
		c0.2,0,0.5,0,0.8,0c0,0,0,0,0,0c0.2,0,0.3-0.1,0.5-0.2c0.3,0.4,0.6,0.8,1.1,1.1c0.6,0.5,1.3,0.7,2,0.7c0.1,0,0.1,0,0.2,0
		c0.8,0,1.5-0.3,2-0.9c0.2-0.2,0.3-0.4,0.4-0.6l0.1,0.1c0,0,0,0,0,0c0,0,0.1,0,0.1,0c0.1,0,0.2-0.1,0.2-0.1l0,0l0.1,0.1
		c0.1,0.1,0.1,0.1,0.2,0.1c0.1,0,0.2-0.1,0.2-0.1l0.2-0.3c0.1,0.2,0.2,0.4,0.3,0.5c0.1,0.1,0.2,0.2,0.4,0.2c0,0,0,0,0.1,0
		c0.3,0,0.6-0.2,0.7-0.6c0,0,0-0.1,0.1-0.2c0.1,0.1,0.2,0.2,0.2,0.2c0.2,0.1,0.3,0.2,0.5,0.2c0,0,0.1,0,0.1,0c0,0,0,0,0,0
		c0,0,0,0,0,0c0.3,0,0.6-0.1,0.9-0.4c0.1-0.2,0.2-0.4,0.3-0.7c0,0,0,0,0,0c0-0.1,0-0.2,0-0.3c0-0.1,0-0.2,0-0.8c0-0.2,0-0.4-0.1-0.5
		c0,0,0,0,0-0.1c0,0,0-0.1,0-0.1c0,0.1,0,0.1,0,0.2c0.1,0.8,0.1,1.5,0.1,2.3c0,0.1,0,0.2,0,0.2c0,0.1,0,0.1,0,0.2
		c0,0.1,0.1,0.2,0.2,0.2c0,0,0.1,0,0.1,0c0.2-0.1,0.3-0.4,0.3-0.8c0-0.3,0-0.6,0-0.8c0-0.2,0-0.4,0-0.7c0-0.2,0-0.3,0-0.5
		c0.1-0.1,0.1-0.1,0.1-0.2C64,20.4,64,20.3,63.9,20.2 M58.9,22.4L58.9,22.4L58.9,22.4C58.9,22.3,58.9,22.3,58.9,22.4
		C58.9,22.3,58.9,22.3,58.9,22.4 M59.3,22.3c0,0-0.1-0.1-0.2-0.1c0,0,0.1,0,0.1-0.1c0,0,0.1-0.1,0.2-0.1c0,0.1,0,0.2,0,0.4
		c0,0,0,0,0,0L59.3,22.3z M45.3,19.1l-0.1,0.2l-0.1-0.1h0C45.2,19.2,45.3,19.1,45.3,19.1C45.4,19.1,45.3,19.1,45.3,19.1 M49.1,22.9
		c0,0,0.1,0.1,0.1,0.1c0,0,0,0-0.1,0.1l0,0L49,23c0,0,0,0,0,0C49,22.9,49,22.9,49.1,22.9"/>
	<polygon class="st3" points="45.1,19.8 45.5,20.3 45.9,19.8 45.5,19.3 45.2,19.7 44.8,19.3 44.5,19.8 44.8,20.2 	"/>
	<path class="st3" d="M48.7,20.6c0,0,0.1,0,0.3,0s0.2,0,0.2,0c0.1,0,0.2-0.1,0.3-0.2c0.1-0.1,0.1-0.2,0.1-0.4c0-0.1,0-0.2-0.1-0.3
		c-0.1-0.1-0.2-0.1-0.2-0.1c-0.1,0-0.1,0-0.1,0c-0.1,0.2-0.2,0.3-0.2,0.4l0,0c0.3,0,0.5,0.1,0.5,0.2c0,0-0.1,0.1-0.3,0.2
		C48.8,20.4,48.7,20.5,48.7,20.6C48.7,20.5,48.7,20.6,48.7,20.6"/>
	<path class="st3" d="M49.4,23.2C49.4,23.2,49.4,23.2,49.4,23.2l-0.2,0.3c0,0,0,0,0,0l-0.3-0.3c0,0,0,0,0,0c0,0,0,0,0,0l-0.2,0.4
		c0,0,0,0,0,0l0.3,0.3c0,0,0,0,0,0l0.2-0.3c0,0,0,0,0,0l0.3,0.3c0,0,0,0,0,0l0.2-0.4c0,0,0,0,0,0L49.4,23.2z"/>
	<path class="st3" d="M52.5,19.3C52.5,19.3,52.5,19.3,52.5,19.3C52.5,19.3,52.5,19.3,52.5,19.3c-0.1,0.2-0.1,0.5-0.1,0.7
		c0,0.1,0,0.1,0.1,0.1c0,0,0.1,0,0.1,0c0,0,0.1-0.1,0.1-0.1c0,0,0-0.1,0.1-0.1c0,0,0,0,0,0c0.1,0.1,0.1,0.2,0.2,0.1
		c0.1,0,0.1-0.1,0.1-0.2c0-0.1,0-0.3,0-0.5c0,0,0-0.1,0-0.1c0,0,0-0.1,0-0.1l0,0c0,0,0,0.1-0.1,0.1c0,0.1,0,0.1,0,0.1
		c0,0,0,0.1,0,0.1c0,0.1,0.1,0.2,0,0.3c0,0,0,0,0,0c0,0-0.1,0-0.2,0c-0.1,0-0.1-0.1-0.1-0.2c0-0.2,0-0.3,0-0.4
		c0-0.1-0.1,0.1-0.1,0.1c0,0.1,0,0.2,0,0.3c0,0.1,0,0.1,0,0.2c0,0.1-0.1,0.1-0.1,0.1c0,0,0,0-0.1,0c0,0-0.1-0.1-0.1-0.1
		C52.5,19.6,52.5,19.4,52.5,19.3C52.5,19.3,52.5,19.3,52.5,19.3"/>
	<polygon class="st3" points="53.3,20.7 52.9,20.3 52.5,20.7 52.9,21.2 	"/>
	<path class="st3" d="M54.4,21c0-0.3,0-0.5-0.1-0.6c0,0,0-0.1,0-0.1c0-0.1,0-0.1,0-0.2c0,0,0-0.1,0-0.1c-0.1-0.3-0.1-0.4-0.2-0.4
		c0,0,0,0,0,0c-0.1,0.2-0.1,0.4-0.1,0.5c0,0.2,0,0.4,0.1,0.8c0,0.4,0.1,0.6,0.1,0.7c0,0.1,0,0.2,0,0.2c-0.1,0.3-0.3,0.4-0.7,0.4v0
		c-0.3,0-0.5-0.1-0.6-0.3c0,0,0-0.1,0-0.1c0-0.1,0-0.1,0-0.1c0,0-0.1,0.1-0.2,0.2c-0.1,0.2-0.3,0.3-0.7,0.3v0c-0.1,0-0.1,0-0.2,0
		c0.1-0.2,0.1-0.3,0.1-0.5c0-0.3-0.1-0.4-0.4-0.4c-0.3,0-0.5,0.2-0.7,0.5c-0.1,0.2-0.2,0.3-0.2,0.3c0,0-0.1,0-0.2,0
		c-0.1,0-0.1-0.1-0.1-0.1c0-0.1,0-0.2,0-0.2l0,0c0,0-0.1,0-0.1,0.1c-0.1,0.1-0.2,0.2-0.4,0.3c-0.1,0-0.2,0-0.2,0c0,0-0.1,0-0.1,0
		c-0.3,0-0.4-0.1-0.5-0.3c0,0,0-0.1,0-0.1c0-0.1,0-0.1,0-0.1c0,0-0.1,0.1-0.2,0.2c-0.1,0.2-0.3,0.3-0.6,0.3v0l-0.1,0
		c-0.2,0-0.4,0-0.6,0c0.1,0,0.1-0.1,0.1-0.1c0.1-0.3,0.1-0.4,0.1-0.5c0,0,0,0-0.1,0c-0.1,0-0.1,0-0.1,0h0c-0.1,0-0.3-0.1-0.5-0.2
		c-0.2-0.1-0.4-0.2-0.5-0.2c-0.2,0-0.3,0.1-0.4,0.3c-0.1,0.1-0.1,0.2-0.1,0.3c0,0,0,0.1,0,0.1c0,0,0.1,0,0.1-0.1
		c0.1-0.1,0.1-0.1,0.2-0.1c0.1,0,0.2,0,0.3,0.1c0.2,0.1,0.3,0.1,0.3,0.2c-0.4,0.2-0.7,0.3-0.9,0.3c-0.2,0-0.3-0.1-0.4-0.5
		c-0.1-0.3-0.2-0.6-0.2-0.9c0-0.3,0-0.4,0-0.5c0,0,0,0,0,0.2c0,0.3-0.1,0.4-0.1,0.5c-0.3,0.2-0.5,0.3-0.5,0.4
		c-0.2,0.2-0.3,0.4-0.4,0.6c-0.1,0.2-0.1,0.4-0.1,0.4c0,0.2,0.1,0.3,0.4,0.3c0.1,0,0.2,0,0.4,0c0.1,0,0.2-0.1,0.3-0.1
		c0.1-0.1,0.1-0.2,0.1-0.3c0,0,0,0.1,0.1,0.2c0.1,0.2,0.1,0.3,0.2,0.3c0.1,0.1,0.2,0.2,0.4,0.2v0c0.2,0,0.4-0.1,0.8-0.3
		c0.4-0.2,0.6-0.3,0.6-0.3l0,0c0,0.2,0.1,0.4,0.2,0.5c0.1,0.1,0.3,0.1,0.6,0.1c0,0,0.1,0,0.1,0v0c0,0,0,0,0,0c0.3,0,0.5-0.2,0.6-0.4
		l0,0c0.1,0.3,0.4,0.5,0.6,0.5c0,0,0,0,0,0c0,0,0,0,0.1,0c0.1,0,0.2-0.1,0.4-0.2c0.1-0.1,0.1-0.1,0.2-0.2h0c0,0,0,0.1,0.1,0.1
		c0.1,0.1,0.2,0.2,0.2,0.2l0,0c0,0,0,0,0,0.1c0,0.1,0,0.1,0,0.1c0,0,0,0,0,0c0-0.1,0.1-0.1,0.1-0.2c0,0,0.1,0,0.3,0.1
		c0.2,0,0.6,0,1.1,0c0,0,0,0,0,0c0.3,0,0.5-0.2,0.6-0.4c0.2,0.3,0.4,0.5,0.6,0.5c0,0,0,0,0,0l0,0c0.3,0,0.5-0.1,0.7-0.3
		c0.1-0.1,0.2-0.3,0.2-0.5c0-0.1,0-0.2,0-0.3C54.5,21.7,54.5,21.4,54.4,21 M45.4,21.8c-0.2,0-0.3,0-0.4,0c-0.1,0-0.2,0-0.2-0.1
		c0,0,0,0,0.1-0.1c0.1-0.1,0.2-0.1,0.3-0.3c0.2-0.1,0.3-0.2,0.4-0.3c0,0.2,0,0.4,0,0.6C45.6,21.8,45.5,21.8,45.4,21.8 M51.5,22.2
		c-0.2,0-0.3,0.1-0.4,0.1c-0.1,0-0.1,0-0.2,0l0,0c0,0,0-0.1,0.1-0.1c0,0,0.1-0.1,0.1-0.1c0.1-0.1,0.3-0.1,0.4-0.1
		c0.1,0,0.2,0,0.3,0.1l0,0.1C51.8,22.1,51.7,22.2,51.5,22.2"/>
	<path class="st3" d="M55.3,20.2c-0.1-0.1-0.1-0.2-0.2-0.4c0-0.2-0.1-0.3-0.1-0.2c0,0-0.1,0.2-0.1,0.4c0,0.2,0,0.3,0,0.4
		c0.1,0.8,0.1,1.6,0.1,2.4c0,0.1,0,0.2,0,0.3c0,0,0,0,0,0c0.1,0,0.1-0.2,0.1-0.5c0-0.3,0-0.6,0-0.8c0-0.2,0-0.4,0-0.7
		c0-0.3,0-0.5,0-0.7C55.3,20.3,55.3,20.3,55.3,20.2"/>
	<polygon class="st3" points="57.2,22.4 56.8,22 56.4,22.4 56.8,22.9 	"/>
	<path class="st3" d="M59.2,21.9C59,22,58.8,22,58.5,22c-0.1,0-0.1,0-0.2,0c0,0,0,0.1,0,0.1c0,0.7-0.2,1.3-0.5,1.7
		c-0.5,0.5-1.2,0.8-1.9,0.8c-0.7,0-1.4-0.2-2.1-0.7c-0.4-0.3-0.8-0.7-1.1-1.2c0.4,0.3,0.8,0.6,1.3,0.8c0.7,0.4,1.5,0.6,2.3,0.5
		c0.6-0.1,1.2-0.2,1.6-0.8c0.2-0.3,0.2-0.6,0.2-0.9c0-0.2,0-0.3-0.1-0.5c0-0.2-0.1-0.3-0.1-0.5c0-0.1,0-0.2,0-0.3c0,0,0-0.2,0.1-0.2
		c0,0,0.1,0.1,0.1,0.2c0,0.1,0.1,0.1,0.1,0.2c0.1,0.1,0.2,0.1,0.3,0.1c0.1,0,0.2,0,0.3,0c0.2,0,0.3-0.1,0.4-0.2
		c0-0.1,0.1-0.1,0.1-0.2c0,0,0-0.1,0-0.2c0-0.1,0-0.2,0-0.2c0-0.1,0-0.2,0-0.2c0-0.1,0-0.1,0-0.1c0,0,0,0.1,0.1,0.1c0,0,0,0.1,0,0.1
		c0,0.1,0,0.2,0,0.2C59.6,21.3,59.4,21.7,59.2,21.9"/>
	<path class="st3" d="M59.1,22.5C59.1,22.5,59.1,22.5,59.1,22.5l-0.2,0.3c0,0,0,0,0,0l-0.3-0.3c0,0,0,0,0,0c0,0,0,0,0,0l-0.2,0.4
		c0,0,0,0,0,0l0.3,0.3c0,0,0,0,0,0l0.2-0.3c0,0,0,0,0,0l0.3,0.3c0,0,0,0,0,0l0.2-0.4c0,0,0,0,0,0L59.1,22.5z"/>
	<path class="st3" d="M60.3,20.5c0,0,0.1,0,0.1-0.1c0,0,0-0.1,0.1-0.1c0,0,0.1,0.1,0.2,0.1c0.1-0.1,0.2-0.2,0.2-0.3
		c0-0.1,0-0.3,0-0.4c0,0,0,0,0-0.1c0-0.1-0.1-0.1-0.1-0.1c-0.1,0.1-0.1,0.3,0,0.4c0,0,0,0.1,0,0.1c0,0,0,0.1,0,0.1
		c-0.1,0-0.1,0-0.2-0.1c0,0,0-0.1,0-0.1c0,0,0-0.1,0-0.1c0,0-0.1,0-0.1,0.1c0,0,0,0,0,0.1c0,0,0,0,0,0.1c0,0,0,0,0,0.1
		c0,0,0,0.1,0,0.1c0,0.1,0,0.1-0.1,0.1c-0.1,0-0.1,0-0.1-0.1s0-0.1,0-0.1c0,0,0-0.1,0-0.1c0-0.1,0-0.1,0-0.1c0,0-0.1,0-0.1,0
		c0,0.1-0.1,0.2-0.1,0.3c0,0.1,0,0.2,0,0.3C60.2,20.4,60.3,20.5,60.3,20.5"/>
	<path class="st3" d="M61.2,24.2c-0.1,0-0.2,0.1-0.4,0.2c-0.2,0.1-0.3,0.2-0.4,0.2c0,0,0,0.1-0.1,0.1c0,0,0,0.1-0.1,0.1
		c0,0,0,0.1,0,0.1c0,0,0,0,0,0c0.1-0.1,0.2-0.1,0.3-0.2c0.1-0.1,0.2-0.1,0.3-0.2l0.1-0.1C61.1,24.5,61.2,24.4,61.2,24.2
		C61.2,24.2,61.2,24.2,61.2,24.2"/>
	<path class="st3" d="M62.8,20.6c0,0,0-0.1,0-0.1c0-0.1,0-0.1,0-0.2c0,0,0-0.1,0-0.1c-0.1-0.3-0.1-0.4-0.2-0.4c0,0,0,0,0,0
		c-0.1,0.2-0.1,0.4-0.1,0.5c0,0.2,0,0.4,0.1,0.8c0,0.4,0.1,0.6,0.1,0.7c0,0.1,0,0.2,0,0.2c-0.1,0.3-0.4,0.4-0.8,0.4v0
		c0,0-0.1,0-0.1,0c-0.4-0.1-0.8-0.7-1-1.8c0,0,0,0,0-0.1c0,0,0,0,0,0.2c0,0.1,0,0.3,0,0.5c0.2,0.6,0.2,0.9,0.2,0.9
		c0,0.2-0.1,0.4-0.2,0.6c-0.1,0.1-0.2,0.2-0.4,0.2c-0.2,0-0.4-0.2-0.5-0.6c0-0.1-0.1-0.3-0.1-0.5c0-0.2-0.1-0.4-0.1-0.4l0,0
		c0,0.1,0,0.2,0,0.3c0,0.1,0,0.3,0,0.6c0,0.3,0.1,0.5,0.1,0.6c0.1,0.2,0.1,0.4,0.3,0.5c0.1,0.1,0.1,0.1,0.2,0.1
		c0.3,0,0.4-0.1,0.5-0.4c0.1-0.2,0.1-0.4,0.2-0.8c0,0.1,0.1,0.1,0.1,0.2c0.1,0.2,0.2,0.4,0.4,0.5c0.1,0.1,0.3,0.1,0.4,0.1v0
		c0.3,0,0.5-0.1,0.7-0.3c0.1-0.1,0.2-0.3,0.2-0.5c0-0.1,0-0.2,0-0.3c0-0.1,0-0.4,0-0.8C62.8,21,62.8,20.8,62.8,20.6"/>
	<path class="st3" d="M63.6,21.2c0-0.3,0-0.5,0-0.7c0.1,0,0.1-0.1,0.1-0.1c-0.1-0.1-0.1-0.2-0.2-0.4c0-0.2-0.1-0.3-0.1-0.2
		c0,0-0.1,0.2-0.1,0.4c0,0.2,0,0.3,0,0.4c0.1,0.8,0.1,1.6,0.1,2.4c0,0.1,0,0.2,0,0.3c0,0,0,0,0,0c0.1,0,0.1-0.2,0.1-0.5
		c0-0.3,0-0.6,0-0.8C63.7,21.8,63.7,21.5,63.6,21.2"/>
	<path class="st3" d="M53.6,18.3c0.1,0,0.1-0.1,0.2-0.1c0,0,0,0,0,0c0,0-0.1,0.1-0.2,0.2c0,0-0.2,0.1-0.7,0.4
		c-0.6,0.3-1.1,0.6-1.5,0.9c0,0-0.1,0-0.1,0c0,0,0,0,0,0c0,0,0-0.1,0.1-0.1c0.1-0.1,0.1-0.1,0.1-0.2C51.6,19.4,52.3,19,53.6,18.3"/>
	<path class="st3" d="M46.1,18c0-0.1,0-0.1-0.1-0.2c-0.1-0.1-0.2-0.1-0.3-0.1c-0.1,0-0.2,0.1-0.3,0.1c-0.1,0.1-0.1,0.2,0,0.3
		c0,0,0,0.2,0.1,0.2c-0.5,0.2-1.1,0.3-1.4,0.7c-0.1,0.2-0.2,0.4-0.2,0.7c0,0,0.1-0.2,0.1-0.2c0-0.1,0.1-0.1,0.1-0.2
		c0.1-0.1,0.2-0.2,0.3-0.3c0.1-0.1,0.2-0.2,0.3-0.3c0.1-0.1,0.3-0.1,0.4-0.1c0.2-0.1,0.3-0.2,0.5-0.3c0.1-0.1,0.2-0.2,0.4-0.2
		c0.1,0,0.1-0.1,0.1-0.2l0,0C46.1,18.1,46.1,18,46.1,18 M45.7,18.2c-0.1,0-0.1-0.1-0.1-0.1c0,0,0,0,0.1,0
		C45.7,18.1,45.7,18.1,45.7,18.2C45.8,18.1,45.8,18.2,45.7,18.2C45.7,18.2,45.7,18.2,45.7,18.2"/>
	<g>
		<defs>
			<polygon id="SVGID_3_" points="60.5,33.4 76.7,34.6 78.5,9.5 62.2,8.3 			"/>
		</defs>
		<clipPath id="SVGID_1_">
			<use xlink:href="#SVGID_3_"  style="overflow:visible;"/>
		</clipPath>
		<g class="st6">
			<defs>
				<polygon id="SVGID_4_" points="60.5,33.4 76.7,34.6 78.5,9.5 62.2,8.3 				"/>
			</defs>
			<clipPath id="SVGID_2_">
				<use xlink:href="#SVGID_4_"  style="overflow:visible;"/>
			</clipPath>
			<g transform="matrix(6.540973e-03 4.747335e-04 -5.072269e-04 7.142249e-03 62.2414 8.3384)" style="clip-path:url(#SVGID_2_);">
				
					<image style="overflow:visible;" width="2482" height="3508" xlink:href="1A581727.png"  transform="matrix(6.540973e-03 4.747335e-04 -5.072269e-04 7.142249e-03 62.2414 8.3384)">
				</image>
			</g>
		</g>
	</g>
	<g>
		<path class="st1" d="M60.9,38.3c-2.4,0-4.6-0.4-6.8-1.3c-1.9-0.7-3.6-1.8-5.1-3.1c-4-3.4-6.3-8.4-6.3-13.7c0-5.1,2.1-9.9,5.9-13.3
			l0.3-0.3l0.3,0.3l-0.3,0.3c-3.7,3.3-5.8,8.1-5.7,13c0,5.1,2.3,10,6.2,13.4c1.5,1.3,3.2,2.3,5,3c2.1,0.8,4.4,1.3,6.7,1.3h0
			c2.3,0,4.5-0.4,6.5-1.2v0l0.1-0.1c2.1-0.8,4-2,5.6-3.6c3.6-3.4,5.6-8,5.6-12.9c0-5-2.1-9.7-5.9-13.1l0.3-0.3c3.8,3.4,6,8.3,6,13.4
			c0,5-2,9.7-5.7,13.2c-1.6,1.5-3.5,2.7-5.6,3.6V37l-0.2,0C65.6,37.8,63.3,38.3,60.9,38.3L60.9,38.3z"/>
		<path class="st1" d="M57,33.5C57,33.6,57,33.6,57,33.5C57,33.6,56.9,33.6,57,33.5c-0.1-0.1-0.1-0.3-0.2-0.4c0-0.1-0.1-0.2-0.1-0.2
			c0-0.1-0.1-0.1-0.1-0.2c0,0,0-0.1,0-0.1c0,0,0-0.1,0-0.2c0,0,0-0.1,0-0.1c0,0,0,0,0,0c0.1,0.1,0.2,0.3,0.2,0.4
			C57,33,57,33.2,57,33.3C57,33.4,57,33.5,57,33.5"/>
		<path class="st1" d="M58.2,32.5c0,0.1,0,0.1-0.1,0.2c0,0.1-0.1,0.1-0.2,0.1c-0.1,0-0.1,0-0.2,0c0,0.1-0.1,0.1-0.2,0.1c0,0,0,0,0,0
			c0,0,0,0,0,0c0,0.2,0,0.3,0,0.4c0,0,0,0.1,0,0.2c0,0.1,0,0.1-0.1,0.1c0,0,0,0,0-0.1c0-0.1,0-0.1,0-0.2c0-0.1,0-0.1-0.1-0.2
			c0-0.1-0.1-0.2-0.1-0.3c0-0.1-0.1-0.1-0.1-0.1c0,0,0-0.1,0-0.1c0-0.1,0-0.1,0-0.1c0,0,0-0.1,0-0.1c0,0,0,0,0,0l0.1,0.1
			c0,0.1,0.1,0.1,0.1,0.1c0.1,0,0.1,0,0.1-0.1c0,0,0-0.1,0-0.1c0,0,0,0,0,0c0,0,0,0,0,0l0,0.1c0,0,0.1,0.1,0.1,0.1
			C58.1,32.6,58.1,32.6,58.2,32.5c-0.1,0-0.1-0.1-0.1-0.1c0,0,0,0,0,0C58.2,32.4,58.2,32.4,58.2,32.5"/>
		<path class="st1" d="M58.4,33.3c0,0,0,0,0.1-0.1c0-0.1,0.1-0.1,0.1-0.2c0.1-0.2,0.2-0.4,0.2-0.6c0,0,0-0.1,0-0.1s0,0,0,0.1
			c0,0.2,0.1,0.4,0.2,0.6c0,0.1,0.1,0.1,0.1,0.2c0,0.1,0.1,0.1,0.1,0.1c0,0,0,0.1,0,0.2c0,0,0,0.1,0,0.1c0,0,0,0,0,0c0,0,0,0,0,0
			c-0.1-0.2-0.3-0.4-0.4-0.8c0,0.1-0.1,0.2-0.1,0.4c-0.1,0.1-0.1,0.3-0.2,0.4c0,0,0,0.1-0.1,0.1c0,0,0,0,0,0
			C58.4,33.5,58.4,33.4,58.4,33.3"/>
		<path class="st1" d="M60,33.5C60,33.6,60,33.6,60,33.5C60,33.6,60,33.6,60,33.5c-0.1-0.1-0.1-0.3-0.2-0.4c0-0.1-0.1-0.2-0.1-0.2
			c0-0.1-0.1-0.1-0.1-0.2c0,0,0-0.1,0-0.1c0,0,0-0.1,0-0.2c0,0,0-0.1,0-0.1c0,0,0,0,0,0c0.1,0.1,0.2,0.3,0.2,0.4
			C60,33,60,33.2,60,33.3C60,33.4,60,33.5,60,33.5"/>
		<path class="st1" d="M57.1,35.7C57.1,35.8,57,35.8,57.1,35.7C57,35.8,57,35.8,57.1,35.7c-0.1-0.1-0.1-0.3-0.2-0.4
			c0-0.1-0.1-0.2-0.1-0.2c0-0.1-0.1-0.1-0.1-0.2c0,0,0-0.1,0-0.1c0,0,0-0.1,0-0.2c0,0,0-0.1,0-0.1c0,0,0,0,0,0
			c0.1,0.1,0.2,0.3,0.2,0.4c0.1,0.2,0.1,0.3,0.1,0.5C57.1,35.6,57.1,35.7,57.1,35.7"/>
		<path class="st1" d="M58.2,35.5c0,0,0,0.1-0.1,0.2c0,0,0,0,0,0c0,0,0,0-0.1-0.1c0-0.1-0.1-0.1-0.1-0.2c0,0,0-0.1,0-0.3
			c0,0-0.1,0-0.1,0c-0.1,0-0.1,0-0.2-0.1c0,0-0.1-0.1-0.1-0.2c0-0.1,0-0.2,0.1-0.3c0.1-0.1,0.1-0.2,0.2-0.2c0.1,0,0.1,0,0.1,0.1
			c0,0,0,0.2,0.1,0.3C58.1,35.2,58.1,35.4,58.2,35.5C58.2,35.5,58.2,35.5,58.2,35.5 M57.9,34.9C57.9,34.9,57.9,34.9,57.9,34.9
			c0-0.1-0.1-0.1-0.1-0.1c0,0-0.1,0-0.1,0c0,0,0,0,0,0.1c0,0,0,0.1,0.1,0.1C57.8,35,57.8,35,57.9,34.9C57.9,35,57.9,35,57.9,34.9"/>
		<path class="st1" d="M59.1,35.7C59.1,35.6,59.1,35.6,59.1,35.7C59,35.5,59,35.4,59,35.3c0,0-0.1-0.2,0-0.3c-0.1,0-0.2,0-0.3,0
			c-0.1,0-0.1-0.1-0.1-0.2c0,0,0-0.1,0-0.1c0,0,0,0,0,0c0,0,0,0,0,0c0.1,0.1,0.2,0.2,0.3,0.1c0.1,0,0.1-0.1,0.2-0.1
			c0-0.1,0-0.2,0.1-0.2c0,0,0,0,0,0.1c0.1,0.1,0.1,0.2,0.1,0.2c0,0,0,0.1,0,0.1c0,0,0,0.1,0,0.1c0,0.2,0,0.3,0,0.5
			c0,0,0.1,0.3,0,0.3C59.2,35.8,59.1,35.7,59.1,35.7"/>
		<path class="st1" d="M60.1,35.7C60.1,35.8,60.1,35.8,60.1,35.7C60,35.8,60,35.8,60.1,35.7c-0.1-0.1-0.1-0.3-0.2-0.4
			c0-0.1-0.1-0.2-0.1-0.2c0-0.1-0.1-0.1-0.1-0.2c0,0,0-0.1,0-0.1c0,0,0-0.1,0-0.2c0,0,0-0.1,0-0.1c0,0,0,0,0,0
			c0.1,0.1,0.2,0.3,0.2,0.4c0.1,0.2,0.1,0.3,0.1,0.5C60.1,35.6,60.1,35.7,60.1,35.7"/>
		<path class="st1" d="M56.3,35.3c0,0,0,0,0,0.1c0,0.1-0.1,0.1-0.1,0.1c0,0,0,0,0,0c0,0,0,0-0.1,0c-0.1,0-0.1,0-0.1,0
			c0,0-0.1,0-0.1,0c-0.1,0-0.1,0-0.1,0c0,0.3,0,0.5,0,0.7c0,0,0,0.1,0,0.1c0,0.1,0,0.1,0,0.1c0,0,0-0.1,0-0.2c0-0.1,0-0.2,0-0.3
			c0-0.1,0-0.2,0-0.2c0-0.1,0-0.2,0.1-0.2c0-0.1,0.1-0.1,0.2-0.1c0,0,0.1,0,0.1,0c0,0,0,0-0.1,0c0,0-0.1,0-0.1,0c0,0,0,0-0.1,0
			c0,0,0,0-0.1,0c0,0,0,0,0,0C55.9,35.1,56,35,56,35c0,0,0.1,0,0.2,0.1C56.3,35.2,56.3,35.2,56.3,35.3"/>
		<path class="st1" d="M55.3,33.7C55.3,33.7,55.3,33.7,55.3,33.7C55.3,33.7,55.3,33.7,55.3,33.7C55.3,33.7,55.3,33.7,55.3,33.7
			C55.4,33.7,55.4,33.7,55.3,33.7c0.1-0.1,0.1-0.1,0.2-0.1c0,0,0,0,0.1,0c0,0,0.1,0,0.1-0.1c0,0,0.1,0,0.1-0.1c0,0,0,0,0,0
			c0,0,0,0,0,0c0,0,0,0,0,0c0,0,0,0,0-0.1c0,0,0-0.1,0-0.1c0,0,0-0.1,0-0.1c0,0,0-0.1,0-0.1c0,0,0,0,0-0.1c0,0,0-0.1,0-0.1
			c0,0,0,0,0.1,0c0,0,0.1,0,0.1,0c0.1,0,0.1,0.1,0.2,0.1c0,0,0,0,0.1,0.1c0,0,0,0.1,0.1,0.1c0,0,0,0.1,0,0.1c0,0,0,0.1,0,0.1
			c0,0,0,0.1,0,0.1c0,0,0,0.1,0,0.1c0,0,0,0,0,0c0,0,0,0,0,0c0,0-0.1,0-0.1,0c0,0-0.1,0-0.1,0c0,0-0.1,0-0.1,0c0,0,0,0,0,0
			c0,0,0,0-0.1,0c0,0,0,0-0.1,0c0,0,0,0,0,0L55.3,33.7z M55.7,33.3C55.7,33.3,55.7,33.3,55.7,33.3C55.7,33.4,55.7,33.4,55.7,33.3
			C55.8,33.4,55.8,33.4,55.7,33.3c0.1,0.1,0.1,0.1,0.1,0.1c0,0,0,0,0,0c0,0,0,0,0,0c0,0,0,0,0,0c0,0,0,0,0,0c0,0,0-0.1,0-0.1
			c0,0,0-0.1-0.1-0.1c0,0,0,0-0.1,0C55.8,33.2,55.8,33.2,55.7,33.3C55.7,33.2,55.7,33.3,55.7,33.3C55.7,33.3,55.7,33.3,55.7,33.3
			 M55.9,33.5C55.9,33.5,56,33.5,55.9,33.5c0.1,0,0.1,0,0.1,0c0,0,0,0,0.1,0c0,0,0,0,0.1,0c0,0,0,0,0,0s0,0,0,0c0,0,0,0,0-0.1
			c0,0,0,0,0-0.1c0,0,0,0,0-0.1c0,0,0,0,0,0c0,0,0,0,0,0l0,0C56,33.3,56,33.3,55.9,33.5C56,33.4,56,33.4,55.9,33.5"/>
		<polygon class="st4" points="60.9,6.7 59.5,9.4 60.9,8.7 62.3,9.3 		"/>
		<rect x="60.8" y="6" class="st4" width="0.1" height="1.1"/>
		<path class="st4" d="M68.7,9.1l-7.3-3l-0.9,0L53.2,9l-0.1-0.6l0.1,0c0.4-0.2,1.1-0.5,1.1-0.7l0,0l0,0c0.3-0.1,0.9-0.3,1-0.6
			c0,0,0-0.1,0-0.1l0-0.1l0.1,0C55.7,6.5,56.1,6.2,56,6c-0.2,0-1-0.1-1.5,0l0,0l0,0c0,0-0.6-0.2-1.1,0.1l0,0l0,0c0,0-0.5-0.1-1,0.3
			l-0.1,0.1l0-0.6l4.2-1.4l-4.2-1.8L56.7,0l0,0c0,0,2.1,0.2,4.2,1.7c0.3-0.2,2.2-1.4,4.4-1.6l0,0l4.5,2.7l-4.2,1.7L69.7,6l-0.1,0.5
			l-0.1-0.1c-0.2-0.1-0.7-0.3-0.9-0.2l0,0l0,0c0,0-0.3-0.2-1-0.1l0,0l0,0c0,0-1-0.2-1.5,0c0,0.1,0.1,0.5,0.7,0.7l0.1,0v0.1
			c0,0,0,0.5,0.8,0.6l0,0l1.3,1L68.7,9.1z M60.5,5.9l1,0l7.1,3l0-0.3l-1.2-0.9c-0.7-0.1-0.9-0.5-0.9-0.7C65.7,6.6,65.8,6,65.8,6l0,0
			l0,0c0.5-0.2,1.5-0.1,1.7,0c0.7-0.1,1,0,1.1,0.1c0.3-0.1,0.7,0.1,0.9,0.2l0-0.2l-4.4-1.7l4.2-1.7l-4.1-2.5C62.9,0.5,61,1.8,61,1.8
			l0,0l0,0c-2-1.4-3.9-1.6-4.2-1.7l-4.2,2.4l4.3,1.9l-4.5,1.5l0,0.2c0.5-0.2,0.9-0.2,1-0.2c0.5-0.3,1.1-0.1,1.2-0.1
			c0.6-0.2,1.6,0,1.6,0l0,0l0,0c0.2,0.3-0.4,0.8-0.7,0.9c0,0.1,0,0.1,0,0.2c-0.1,0.3-0.9,0.6-1.1,0.7c-0.2,0.3-0.9,0.7-1.1,0.8
			l0.1,0.3L60.5,5.9z"/>
		<path class="st4" d="M61.8,5.2L61.8,5.2c-0.8-0.5-1.9-0.1-1.9-0.1l0,0l0,0c-0.9-0.9-6-2.7-6.1-2.7l-0.2-0.1l3.3-1.9l0,0
			C58.6,0.7,60.6,2,61,2.2c1.3-0.9,3.4-1.5,3.5-1.5l0,0l2.9,2l-0.2,0C63.8,3.7,61.8,5.1,61.8,5.2L61.8,5.2z M60.9,4.8
			c0.3,0,0.6,0.1,0.9,0.2C62.1,4.8,64,3.5,67,2.6l-2.6-1.8c-0.3,0.1-2.2,0.7-3.4,1.5l0,0l0,0c0,0-2.3-1.5-4-1.8l-3,1.7
			c0.9,0.3,5,1.8,5.9,2.6C60,4.9,60.4,4.8,60.9,4.8"/>
		<path class="st4" d="M57.1,1.1c-0.1,0-0.2-0.1-0.2-0.1l0-0.1C56.9,1,57,1.1,57.1,1.1L57.1,1.1z"/>
		<path class="st4" d="M60.1,2.4c-0.1-0.1-0.2-0.1-0.4-0.2l0,0C59.9,2.2,60,2.3,60.1,2.4L60.1,2.4z M59.4,2C59.3,2,59.1,1.9,59,1.9
			l0,0C59.2,1.9,59.3,1.9,59.4,2L59.4,2z M58.6,1.7c-0.1,0-0.3-0.1-0.4-0.2l0-0.1C58.4,1.5,58.5,1.6,58.6,1.7L58.6,1.7z M57.9,1.4
			c-0.1,0-0.3-0.1-0.4-0.1l0-0.1C57.6,1.3,57.8,1.3,57.9,1.4L57.9,1.4z"/>
		<path class="st4" d="M60.6,2.8c-0.1,0-0.1-0.1-0.2-0.1l0,0C60.6,2.6,60.6,2.7,60.6,2.8L60.6,2.8z"/>
		<path class="st4" d="M56.6,1.6c-0.1,0-0.2-0.1-0.2-0.1l0-0.1C56.4,1.5,56.4,1.5,56.6,1.6L56.6,1.6z"/>
		<path class="st4" d="M59.9,3c-0.1-0.1-0.3-0.2-0.4-0.2l0,0C59.7,2.8,59.8,2.9,59.9,3L59.9,3z M59.1,2.6c-0.1-0.1-0.3-0.1-0.4-0.2
			l0,0C58.9,2.4,59,2.5,59.1,2.6L59.1,2.6z M58.3,2.2C58.1,2.1,58,2.1,57.9,2l0-0.1C58,2,58.2,2.1,58.3,2.2L58.3,2.2z M57.4,1.9
			c-0.1,0-0.3-0.1-0.4-0.1l0-0.1C57.2,1.7,57.3,1.8,57.4,1.9L57.4,1.9z"/>
		<path class="st4" d="M60.4,3.4c-0.1,0-0.1-0.1-0.2-0.1l0,0C60.4,3.3,60.4,3.4,60.4,3.4L60.4,3.4z"/>
		<path class="st4" d="M55.8,1.9c-0.1,0-0.2-0.1-0.2-0.1l0-0.1C55.6,1.8,55.7,1.8,55.8,1.9L55.8,1.9z"/>
		<path class="st4" d="M59.7,3.6c-0.1-0.1-0.2-0.2-0.4-0.2l0,0C59.5,3.4,59.6,3.5,59.7,3.6L59.7,3.6z M59,3.2
			C58.9,3.1,58.7,3,58.6,3l0,0C58.8,3,58.9,3,59,3.2L59,3.2z M58.2,2.8c-0.1-0.1-0.3-0.1-0.4-0.2l0-0.1C58,2.6,58.1,2.7,58.2,2.8
			L58.2,2.8z M57.4,2.5c-0.1-0.1-0.3-0.1-0.4-0.1l0-0.1C57.2,2.3,57.3,2.4,57.4,2.5L57.4,2.5z M56.6,2.2c-0.1,0-0.3-0.1-0.4-0.1
			l0-0.1C56.4,2,56.5,2.1,56.6,2.2L56.6,2.2z"/>
		<path class="st4" d="M60.2,4c0,0-0.1-0.1-0.2-0.1l0,0C60.2,3.8,60.2,3.9,60.2,4L60.2,4z"/>
		<path class="st4" d="M55.2,2.4c-0.1,0-0.2-0.1-0.2-0.1l0-0.1C55,2.2,55.1,2.3,55.2,2.4L55.2,2.4z"/>
		<path class="st4" d="M59.4,4.2C59.3,4.1,59.2,4,59,4l0,0C59.2,4,59.3,4.1,59.4,4.2L59.4,4.2z M58.6,3.7c-0.1-0.1-0.3-0.1-0.4-0.2
			l0,0C58.4,3.6,58.5,3.6,58.6,3.7L58.6,3.7z M57.8,3.4c-0.1-0.1-0.3-0.1-0.4-0.2l0-0.1C57.5,3.2,57.7,3.2,57.8,3.4L57.8,3.4z
			 M56.9,3c-0.1-0.1-0.3-0.1-0.4-0.2l0-0.1C56.7,2.8,56.8,2.9,56.9,3L56.9,3z M56.1,2.7c-0.2-0.1-0.3-0.1-0.4-0.2l0-0.1
			C55.8,2.5,55.9,2.6,56.1,2.7L56.1,2.7z"/>
		<path class="st4" d="M60,4.5c-0.1,0-0.1-0.1-0.2-0.1l0,0C59.9,4.4,60,4.5,60,4.5L60,4.5z"/>
		<path class="st4" d="M64.2,1.3L64.2,1.3c0.1-0.1,0.2-0.1,0.2-0.1l0,0.1C64.5,1.2,64.4,1.2,64.2,1.3"/>
		<path class="st4" d="M61.8,2.4L61.8,2.4c0.1-0.1,0.2-0.2,0.4-0.3l0,0C62,2.2,61.9,2.3,61.8,2.4 M62.6,1.9L62.6,1.9
			c0.1-0.1,0.2-0.2,0.4-0.2l0,0C62.8,1.8,62.7,1.9,62.6,1.9 M63.4,1.6L63.4,1.6c0.1-0.1,0.3-0.2,0.4-0.2l0,0.1
			C63.7,1.5,63.5,1.5,63.4,1.6"/>
		<path class="st4" d="M61.2,2.7L61.2,2.7c0-0.1,0.1-0.1,0.1-0.2l0,0C61.4,2.6,61.3,2.7,61.2,2.7"/>
		<path class="st4" d="M64.7,1.7L64.7,1.7c0.1-0.1,0.2-0.1,0.2-0.1l0,0.1C64.9,1.7,64.8,1.7,64.7,1.7"/>
		<path class="st4" d="M61.8,3L61.8,3c0.1-0.1,0.2-0.2,0.3-0.3l0,0C62.1,2.9,61.9,3,61.8,3 M62.5,2.6L62.5,2.6
			c0.1-0.1,0.2-0.2,0.3-0.2l0,0C62.7,2.5,62.6,2.6,62.5,2.6 M63.2,2.3L63.2,2.3c0.1-0.1,0.2-0.2,0.3-0.2l0,0.1
			C63.5,2.2,63.3,2.2,63.2,2.3 M64,2L64,2c0.1-0.1,0.2-0.1,0.4-0.2l0,0.1C64.2,1.9,64.1,1.9,64,2"/>
		<path class="st4" d="M61.4,3.4L61.4,3.4c0-0.1,0.1-0.1,0.1-0.2l0,0C61.5,3.3,61.4,3.4,61.4,3.4"/>
		<path class="st4" d="M65.4,2.1L65.4,2.1C65.5,2.1,65.6,2,65.6,2l0,0.1C65.6,2.1,65.5,2.1,65.4,2.1"/>
		<path class="st4" d="M62,3.6L62,3.6c0.1-0.1,0.2-0.2,0.4-0.3l0,0C62.3,3.4,62.1,3.5,62,3.6 M62.8,3.1L62.8,3.1
			c0.1-0.1,0.2-0.2,0.4-0.3l0,0C63.1,3,62.9,3,62.8,3.1 M63.6,2.7L63.6,2.7c0.1-0.1,0.3-0.2,0.4-0.2l0,0.1
			C63.9,2.6,63.8,2.7,63.6,2.7 M64.5,2.4L64.5,2.4c0.1-0.1,0.3-0.1,0.4-0.2l0,0.1C64.8,2.3,64.7,2.4,64.5,2.4"/>
		<path class="st4" d="M61.5,4L61.5,4c0-0.1,0.1-0.1,0.1-0.2l0,0C61.6,3.9,61.5,4,61.5,4"/>
		<path class="st4" d="M66,2.5L66,2.5c0.1-0.1,0.2-0.1,0.2-0.1l0,0.1C66.2,2.5,66.1,2.5,66,2.5"/>
		<path class="st4" d="M62.1,4.2L62.1,4.2c0.1-0.1,0.2-0.2,0.3-0.3l0,0C62.3,4.1,62.2,4.1,62.1,4.2 M62.8,3.8L62.8,3.8
			c0.1-0.1,0.2-0.2,0.4-0.2l0,0C63.1,3.7,63,3.7,62.8,3.8 M63.6,3.4L63.6,3.4c0.1-0.1,0.2-0.2,0.4-0.2l0,0.1
			C63.9,3.3,63.7,3.4,63.6,3.4 M64.4,3.1L64.4,3.1C64.5,3,64.6,3,64.8,2.9l0,0.1C64.7,3,64.5,3.1,64.4,3.1 M65.2,2.8L65.2,2.8
			c0.1-0.1,0.3-0.1,0.4-0.2l0,0.1C65.5,2.7,65.3,2.8,65.2,2.8"/>
		<path class="st4" d="M61.6,4.6L61.6,4.6c0-0.1,0.1-0.1,0.1-0.2l0,0C61.7,4.5,61.6,4.5,61.6,4.6"/>
		<path class="st4" d="M60.6,4.5L61,2.8l0.2,1.7C61.1,4.5,61,4.3,60.6,4.5"/>
	</g>
</g>
</svg>
